<svg width="150" height="150" viewBox="0 0 150 150" fill="none" xmlns="http://www.w3.org/2000/svg">
<path d="M150 150L150 0L0 -6.55671e-06L150 150Z" fill="#00D6EA"/>
<path d="M67.199 23.5127L76.5767 14.1351L81.0102 18.5686C81.4491 19.0075 81.767 19.4777 81.9641 19.9793C82.1701 20.4719 82.2641 20.969 82.2462 21.4706C82.2373 21.9811 82.1119 22.4916 81.8701 23.0022C81.6372 23.5038 81.3013 23.974 80.8624 24.4129C80.4146 24.8607 79.9399 25.201 79.4383 25.4339C78.9367 25.6668 78.4307 25.7877 77.9202 25.7967C77.4186 25.8146 76.917 25.725 76.4154 25.528C75.9228 25.322 75.4571 24.9995 75.0182 24.5606L72.6268 22.1692L69.2411 25.5548L67.199 23.5127ZM74.4002 20.3958L76.5498 22.5454C76.8543 22.8499 77.1678 23.0111 77.4902 23.029C77.8306 23.047 78.153 22.9037 78.4576 22.5991L79.0487 22.008C79.3532 21.7035 79.4921 21.3855 79.4652 21.0541C79.4562 20.7227 79.2995 20.4047 78.995 20.1002L76.8454 17.9506L74.4002 20.3958ZM78.0579 34.3716L76.0157 32.3294L85.3934 22.9518L89.8404 27.3988C90.2703 27.8287 90.5883 28.29 90.7943 28.7826C91.0003 29.2752 91.0898 29.7768 91.063 30.2873C91.054 30.7979 90.9331 31.3039 90.7002 31.8055C90.4673 32.3071 90.127 32.7818 89.6792 33.2296C89.0432 33.8655 88.3446 34.2775 87.5833 34.4656C86.8309 34.6627 86.0607 34.5821 85.2725 34.2238L83.4319 39.7456L81.1614 37.4751L82.9616 32.3966L81.4972 30.9322L78.0579 34.3716ZM85.3665 31.3621C85.671 31.6667 85.9845 31.8279 86.307 31.8458C86.6473 31.8637 86.9698 31.7204 87.2743 31.4159L87.8654 30.8247C88.17 30.5202 88.3088 30.2022 88.2819 29.8708C88.273 29.5394 88.1162 29.2215 87.8117 28.917L85.6621 26.7673L83.2169 29.2125L85.3665 31.3621ZM85.0686 41.3823L94.4463 32.0047L100.828 38.3863L99.0142 40.2001L94.6747 35.8606L92.7535 37.7818L96.475 41.5033L94.6747 43.3036L90.9532 39.5821L88.9245 41.6107L93.264 45.9503L91.4503 47.764L85.0686 41.3823ZM95.4058 51.7196L101.761 39.319L103.83 41.388L100.726 47.286L98.5228 50.9672L98.5631 51.0075L102.217 48.7773L108.115 45.6738L110.117 47.6756L97.6898 54.0035L95.4058 51.7196ZM101.605 57.9184L103.23 56.2927L104.439 57.5019L110.566 51.3755L109.357 50.1663L110.982 48.5407L115.443 53.0011L113.817 54.6268L112.608 53.4176L106.482 59.544L107.691 60.7531L106.065 62.3788L101.605 57.9184ZM107.766 64.0802L117.144 54.7026L123.526 61.0842L121.712 62.8979L117.373 58.5584L115.451 60.4796L119.173 64.2011L117.373 66.0014L113.651 62.2799L111.622 64.3086L115.962 68.6481L114.148 70.4618L107.766 64.0802ZM117.405 73.7188L124.66 62.2184L126.675 64.2337L123.061 69.6211L120.952 72.7246L120.992 72.7649L124.19 70.7496L129.725 67.2834L131.955 69.5136L128.502 75.0623L126.474 78.2464L126.514 78.2867L129.618 76.1774L135.018 72.5768L136.953 74.5115L125.399 81.7126L123.075 79.3884L126.971 73.1276L128.57 70.6153L128.529 70.575L126.003 72.1603L119.743 76.0565L117.405 73.7188ZM78.0576 50.3491L78.0173 50.3088L75.9617 50.9939L70.8161 52.4852L72.3342 47.3934L73.1 45.2034L73.0597 45.1631L66.8124 51.4104L64.8912 49.4892L74.2689 40.1116L76.4319 42.2746L74.3361 48.9653L74.3629 48.9921L81.0267 46.8694L83.2032 49.0459L73.8255 58.4235L71.9043 56.5023L78.0576 50.3491ZM79.4996 64.42C78.8816 63.802 78.4203 63.1348 78.1158 62.4182C77.8113 61.7017 77.6814 60.9628 77.7262 60.2014C77.7799 59.4312 78.0083 58.6475 78.4114 57.8503C78.8234 57.0442 79.428 56.2426 80.2251 55.4454C81.0223 54.6483 81.8194 54.0482 82.6165 53.6452C83.4227 53.2331 84.2064 53.0048 84.9677 52.96C85.738 52.9062 86.4814 53.0316 87.1979 53.3361C87.9144 53.6407 88.5817 54.1019 89.1997 54.72C89.8177 55.338 90.279 56.0052 90.5835 56.7218C90.888 57.4383 91.0134 58.1817 90.9597 58.952C90.9149 59.7133 90.6865 60.497 90.2745 61.3031C89.8715 62.1003 89.2714 62.8974 88.4742 63.6946C87.6771 64.4917 86.8755 65.0963 86.0693 65.5083C85.2722 65.9113 84.4885 66.1397 83.7182 66.1935C82.9569 66.2383 82.218 66.1084 81.5014 65.8039C80.7849 65.4993 80.1176 65.0381 79.4996 64.42ZM81.3134 62.6063C81.9314 63.2243 82.6121 63.502 83.3555 63.4393C84.1078 63.3856 84.8602 62.9825 85.6126 62.2301L87.0098 60.8329C87.7622 60.0805 88.1652 59.3282 88.219 58.5758C88.2817 57.8324 88.004 57.1517 87.386 56.5337C86.768 55.9157 86.0828 55.6335 85.3304 55.6873C84.587 55.75 83.8391 56.1575 83.0868 56.9099L81.6895 58.3071C80.9372 59.0595 80.5296 59.8074 80.4669 60.5508C80.4132 61.3031 80.6953 61.9883 81.3134 62.6063ZM94.8675 60.7102L98.4009 64.2436C99.0189 64.8616 99.4847 65.5244 99.7982 66.232C100.112 66.9396 100.25 67.6695 100.215 68.4219C100.188 69.1653 99.9773 69.9311 99.5832 70.7193C99.1981 71.4985 98.6159 72.2778 97.8366 73.057C97.0574 73.8362 96.2737 74.4229 95.4855 74.817C94.7063 75.2021 93.9405 75.4126 93.1881 75.4484C92.4447 75.4753 91.7192 75.332 91.0117 75.0185C90.3041 74.705 89.6413 74.2393 89.0233 73.6213L85.4899 70.0878L94.8675 60.7102ZM90.837 71.8075C91.4461 72.4166 92.0954 72.7256 92.7851 72.7345C93.4747 72.7435 94.1958 72.3718 94.9481 71.6194L96.3991 70.1685C97.1515 69.4161 97.5232 68.6951 97.5142 68.0054C97.5053 67.3158 97.1962 66.6664 96.5872 66.0573L95.0959 64.566L89.3457 70.3162L90.837 71.8075ZM94.8576 79.4556L104.235 70.078L110.617 76.4596L108.803 78.2733L104.464 73.9338L102.542 75.855L106.264 79.5765L104.464 81.3768L100.742 77.6553L98.7135 79.684L103.053 84.0235L101.239 85.8373L94.8576 79.4556Z" fill="white"/>
</svg>
