<svg width="11" height="19" viewBox="0 0 11 19" fill="none" xmlns="http://www.w3.org/2000/svg">
<path fill-rule="evenodd" clip-rule="evenodd" d="M9.50854 4.43725C9.85864 4.78735 9.85864 5.35497 9.50854 5.70506L6.33909 8.87449L6.33924 8.87464L5.07144 10.1425L5.07128 10.1423L5.07116 10.1424L3.80333 8.8746L3.80347 8.87447L0.634141 5.70511C0.284048 5.35501 0.284048 4.7874 0.634141 4.4373C0.984234 4.0872 1.55185 4.0872 1.90194 4.4373L5.07128 7.60667L8.24072 4.43725C8.59082 4.08715 9.15844 4.08715 9.50854 4.43725Z" fill="#598CF5"/>
<path fill-rule="evenodd" clip-rule="evenodd" d="M0.634036 13.7053C0.283936 13.3552 0.283934 12.7876 0.634033 12.4375L3.80348 9.26808L3.80333 9.26793L5.07112 8.00011L5.07129 8.00027L5.07141 8.00015L6.33924 9.26796L6.3391 9.26809L9.50844 12.4374C9.85853 12.7875 9.85853 13.3552 9.50844 13.7053C9.15835 14.0554 8.59073 14.0554 8.24064 13.7053L5.07129 10.5359L1.90186 13.7053C1.55176 14.0554 0.984138 14.0554 0.634036 13.7053Z" fill="#598CF5"/>
</svg>
