<svg width="30" height="20" viewBox="0 0 30 20" fill="none" xmlns="http://www.w3.org/2000/svg">
<path fill-rule="evenodd" clip-rule="evenodd" d="M15 0.000976038L9 10.001L21 10.001L15 0.000976038Z" fill="#B3C0D3"/>
<path d="M2.87924 19.001L2.62924 18.1711H1.46424L1.21424 19.001H0.444244L1.59424 15.511H2.53424L3.66924 19.001H2.87924ZM2.05424 16.2011H2.02924L1.64424 17.526H2.44424L2.05424 16.2011Z" fill="#B3C0D3"/>
<path d="M5.2821 19.061C4.97543 19.061 4.71543 19.0094 4.5021 18.9061C4.28876 18.7994 4.1071 18.6627 3.9571 18.496L4.4571 17.9911C4.69376 18.2577 4.98543 18.391 5.3321 18.391C5.51876 18.391 5.6571 18.3527 5.7471 18.2761C5.8371 18.1994 5.8821 18.0977 5.8821 17.9711C5.8821 17.8744 5.85543 17.7944 5.8021 17.7311C5.74876 17.6644 5.64043 17.6194 5.4771 17.596L5.1321 17.551C4.7621 17.5044 4.49043 17.3927 4.3171 17.216C4.1471 17.0394 4.0621 16.8044 4.0621 16.511C4.0621 16.3544 4.0921 16.211 4.1521 16.081C4.2121 15.951 4.2971 15.8394 4.4071 15.746C4.52043 15.6527 4.6571 15.581 4.8171 15.531C4.98043 15.4777 5.16543 15.451 5.3721 15.451C5.63543 15.451 5.8671 15.4927 6.0671 15.576C6.2671 15.6594 6.43876 15.781 6.5821 15.941L6.0771 16.451C5.99376 16.3544 5.8921 16.276 5.7721 16.216C5.65543 16.1527 5.5071 16.121 5.3271 16.121C5.1571 16.121 5.03043 16.151 4.9471 16.211C4.86376 16.271 4.8221 16.3544 4.8221 16.4611C4.8221 16.581 4.85376 16.6677 4.9171 16.721C4.98376 16.7744 5.09043 16.8127 5.2371 16.836L5.5821 16.891C5.9421 16.9477 6.20876 17.0594 6.3821 17.226C6.55543 17.3894 6.6421 17.6227 6.6421 17.926C6.6421 18.0927 6.6121 18.246 6.5521 18.386C6.4921 18.526 6.40376 18.646 6.2871 18.746C6.17376 18.846 6.0321 18.9244 5.8621 18.9811C5.6921 19.0344 5.49876 19.061 5.2821 19.061Z" fill="#B3C0D3"/>
<path d="M8.68221 19.061C8.44555 19.061 8.23221 19.0244 8.04221 18.951C7.85221 18.8744 7.69055 18.7627 7.55721 18.616C7.42388 18.466 7.32055 18.281 7.24721 18.061C7.17388 17.8377 7.13721 17.5777 7.13721 17.281C7.13721 16.9877 7.17388 16.7277 7.24721 16.501C7.32055 16.271 7.42388 16.0794 7.55721 15.926C7.69055 15.7694 7.85221 15.651 8.04221 15.571C8.23221 15.491 8.44555 15.451 8.68221 15.451C9.00555 15.451 9.27221 15.5177 9.48221 15.651C9.69221 15.781 9.86055 15.9877 9.98721 16.271L9.33221 16.611C9.28555 16.4644 9.21221 16.3477 9.11221 16.261C9.01555 16.171 8.87221 16.126 8.68221 16.126C8.45888 16.126 8.27888 16.1994 8.14221 16.346C8.00888 16.4894 7.94221 16.6994 7.94221 16.976V17.536C7.94221 17.8127 8.00888 18.0244 8.14221 18.1711C8.27888 18.3144 8.45888 18.386 8.68221 18.386C8.86888 18.386 9.01721 18.3361 9.12721 18.2361C9.24055 18.1327 9.32388 18.0094 9.37721 17.8661L9.99721 18.226C9.86721 18.4927 9.69555 18.6994 9.48221 18.846C9.27221 18.9894 9.00555 19.061 8.68221 19.061Z" fill="#B3C0D3"/>
<path d="M10.529 19.001V15.511H12.904V16.186H11.289V16.901H12.674V17.571H11.289V18.326H12.904V19.001H10.529Z" fill="#B3C0D3"/>
<path d="M14.6312 17.351L14.2962 16.651H14.2812V19.001H13.5662V15.511H14.3962L15.3512 17.161L15.6862 17.861H15.7012V15.511H16.4162V19.001H15.5862L14.6312 17.351Z" fill="#B3C0D3"/>
<path d="M17.1843 15.511H18.4993C18.7293 15.511 18.9393 15.5477 19.1293 15.621C19.3193 15.6944 19.481 15.8044 19.6143 15.951C19.7477 16.0944 19.851 16.276 19.9243 16.496C19.9977 16.7127 20.0343 16.966 20.0343 17.256C20.0343 17.546 19.9977 17.801 19.9243 18.021C19.851 18.2377 19.7477 18.4194 19.6143 18.5661C19.481 18.7094 19.3193 18.8177 19.1293 18.891C18.9393 18.9644 18.7293 19.001 18.4993 19.001H17.1843V15.511ZM18.4993 18.326C18.726 18.326 18.9043 18.2627 19.0343 18.136C19.1643 18.0094 19.2293 17.806 19.2293 17.526V16.986C19.2293 16.706 19.1643 16.5027 19.0343 16.376C18.9043 16.2494 18.726 16.186 18.4993 16.186H17.9443V18.326H18.4993Z" fill="#B3C0D3"/>
<path d="M20.5357 19.001V18.396H20.9857V16.116H20.5357V15.511H22.1957V16.116H21.7457V18.396H22.1957V19.001H20.5357Z" fill="#B3C0D3"/>
<path d="M23.8939 17.351L23.5589 16.651H23.5439V19.001H22.8289V15.511H23.6589L24.6139 17.161L24.9489 17.861H24.9639V15.511H25.6789V19.001H24.8489L23.8939 17.351Z" fill="#B3C0D3"/>
<path d="M28.662 18.4461H28.637C28.6104 18.6227 28.5204 18.7694 28.367 18.8861C28.2137 19.0027 28.0054 19.061 27.742 19.061C27.542 19.061 27.3554 19.0227 27.182 18.9461C27.0087 18.8694 26.857 18.7561 26.727 18.6061C26.597 18.4561 26.4954 18.2694 26.422 18.0461C26.3487 17.8227 26.312 17.5644 26.312 17.271C26.312 16.9777 26.3504 16.7177 26.427 16.491C26.5037 16.2644 26.6104 16.0744 26.747 15.921C26.887 15.7677 27.0537 15.651 27.247 15.571C27.4404 15.491 27.6554 15.451 27.892 15.451C28.2054 15.451 28.4754 15.5194 28.702 15.656C28.9287 15.7894 29.107 15.991 29.237 16.261L28.617 16.616C28.5637 16.4794 28.4804 16.3644 28.367 16.271C28.2537 16.1744 28.0954 16.126 27.892 16.126C27.6554 16.126 27.467 16.1944 27.327 16.331C27.187 16.4677 27.117 16.6827 27.117 16.976V17.536C27.117 17.826 27.187 18.041 27.327 18.181C27.467 18.3177 27.6554 18.386 27.892 18.386C27.9854 18.386 28.0737 18.3761 28.157 18.3561C28.2404 18.3327 28.3137 18.2994 28.377 18.2561C28.4403 18.2094 28.4887 18.1544 28.522 18.0911C28.5587 18.0277 28.577 17.9527 28.577 17.8661V17.691H27.927V17.056H29.302V19.001H28.662V18.4461Z" fill="#B3C0D3"/>
</svg>
