<svg width="16" height="16" viewBox="0 0 16 16" fill="none" xmlns="http://www.w3.org/2000/svg">
<path d="M13.9987 6.66674C14.1755 6.66674 14.3451 6.5965 14.4701 6.47148C14.5951 6.34645 14.6654 6.17688 14.6654 6.00007V4.00007C14.6654 3.86019 14.6213 3.72385 14.5395 3.61041C14.4576 3.49697 14.3421 3.41218 14.2094 3.36807L8.20936 1.36807C8.0726 1.32262 7.9248 1.32262 7.78803 1.36807L1.78803 3.36807C1.65528 3.41218 1.53979 3.49697 1.45794 3.61041C1.37609 3.72385 1.33204 3.86019 1.33203 4.00007V6.00007C1.33203 6.17688 1.40227 6.34645 1.52729 6.47148C1.65232 6.5965 1.82189 6.66674 1.9987 6.66674H2.66536V11.4561C2.27649 11.593 1.93955 11.847 1.70082 12.1832C1.46208 12.5193 1.33326 12.9211 1.33203 13.3334V14.6667C1.33203 14.8435 1.40227 15.0131 1.52729 15.1381C1.65232 15.2632 1.82189 15.3334 1.9987 15.3334H13.9987C14.1755 15.3334 14.3451 15.2632 14.4701 15.1381C14.5951 15.0131 14.6654 14.8435 14.6654 14.6667V13.3334C14.6641 12.9211 14.5353 12.5193 14.2966 12.1832C14.0578 11.847 13.7209 11.593 13.332 11.4561V6.66674H13.9987ZM13.332 14.0001H2.66536V13.3334C2.66554 13.1566 2.73584 12.9872 2.86082 12.8622C2.98581 12.7372 3.15527 12.6669 3.33203 12.6667H12.6654C12.8421 12.6669 13.0116 12.7372 13.1366 12.8622C13.2616 12.9872 13.3319 13.1566 13.332 13.3334V14.0001ZM3.9987 11.3334V6.66674H5.33203V11.3334H3.9987ZM6.66536 11.3334V6.66674H9.33203V11.3334H6.66536ZM10.6654 11.3334V6.66674H11.9987V11.3334H10.6654ZM2.66536 5.33341V4.48007L7.9987 2.70274L13.332 4.48074V5.33341H2.66536Z" fill="#4C617C"/>
</svg>
