<svg width="10" height="12" viewBox="0 0 10 12" fill="none" xmlns="http://www.w3.org/2000/svg">
<path fill-rule="evenodd" clip-rule="evenodd" d="M2.75168 1.04094C2.75168 0.466043 3.19739 0 3.7472 0H6.2528C6.80261 0 7.24832 0.466043 7.24832 1.04094V1.40351H8.94855C9.52925 1.40351 10 1.89573 10 2.50292C10 2.94724 9.74803 3.32961 9.38572 3.50304L8.56644 11.0965C8.51092 11.6111 8.09467 12 7.59942 12H2.40058C1.90533 12 1.48908 11.6111 1.43356 11.0965L0.614283 3.50304C0.251967 3.32961 0 2.94724 0 2.50292C0 1.89573 0.470752 1.40351 1.05145 1.40351H2.75168V1.04094ZM2.40058 11.8129C2.16955 11.8129 1.95959 11.7092 1.81363 11.5419C1.95957 11.7088 2.16932 11.8123 2.40008 11.8123H4.12702H4.9995H7.59892C8.00309 11.8123 8.34279 11.4949 8.3881 11.075L9.21945 3.36964C9.56843 3.25032 9.82053 2.90712 9.82053 2.50236C9.82053 2.26583 9.73445 2.05032 9.59324 1.88823C9.73474 2.05039 9.82103 2.26612 9.82103 2.50292C9.82103 2.90769 9.56892 3.25088 9.21994 3.37021L8.3886 11.0755C8.34329 11.4955 8.00359 11.8129 7.59942 11.8129H2.40058ZM7.06935 1.04094V1.59008H7.06885V1.04037C7.06885 0.818685 6.98805 0.616734 6.85557 0.464958C6.98835 0.616798 7.06935 0.818976 7.06935 1.04094ZM0.779606 3.37005C0.634831 3.32046 0.506748 3.23233 0.406448 3.11726C0.506778 3.23217 0.63484 3.32016 0.779562 3.36964L0.779606 3.37005ZM3.3557 1.40351H6.6443V1.04094C6.6443 0.814854 6.46901 0.631579 6.2528 0.631579H3.7472C3.53098 0.631579 3.3557 0.814854 3.3557 1.04094V1.40351ZM6.2523 0.443877C6.41928 0.443877 6.56951 0.518894 6.67384 0.638455C6.56953 0.519224 6.41951 0.444444 6.2528 0.444444H3.7472C3.43214 0.444444 3.17673 0.711503 3.17673 1.04094V1.59008H3.17624V1.04037C3.17624 0.710935 3.43165 0.443877 3.74671 0.443877H4.39548H4.9995H6.2523ZM1.05145 2.03509C0.804347 2.03509 0.604027 2.24455 0.604027 2.50292C0.604027 2.7613 0.804347 2.97076 1.05145 2.97076H8.94855C9.19565 2.97076 9.39597 2.7613 9.39597 2.50292C9.39597 2.24455 9.19565 2.03509 8.94855 2.03509H1.05145ZM1.03256 3.4152L1.85594 11.0467C1.8693 11.1705 1.91975 11.2814 1.99491 11.3679C1.91947 11.2814 1.86883 11.1702 1.85544 11.0461L1.03206 3.41464H1.05096H3.79145H4.12702H4.9995H8.94805H8.96694L8.96688 3.4152H1.03256ZM1.23285 3.60234L2.03378 11.0257C2.05484 11.2209 2.21273 11.3684 2.40058 11.3684H7.59942C7.78727 11.3684 7.94516 11.2209 7.96622 11.0257L8.76714 3.60234H1.23285ZM8.94855 1.84795C9.13186 1.84795 9.29678 1.93029 9.41134 2.06153C9.29677 1.92996 9.13163 1.84739 8.94805 1.84739H7.06885H6.94581H4.9995H4.39548H3.79145H3.0532H2.93015H1.05096C0.705008 1.84739 0.42456 2.14063 0.42456 2.50236C0.42456 2.67262 0.486697 2.82772 0.588553 2.9442C0.486991 2.82778 0.425056 2.67291 0.425056 2.50292C0.425056 2.14119 0.705504 1.84795 1.05145 1.84795H8.94855ZM5.01085 4.29265C4.81934 4.29265 4.6641 4.45498 4.6641 4.65522V10.1523C4.6641 10.3525 4.81934 10.5149 5.01085 10.5149C5.20236 10.5149 5.35761 10.3525 5.35761 10.1523V4.65522C5.35761 4.45498 5.20236 4.29265 5.01085 4.29265ZM2.64618 4.68288C2.63435 4.48302 2.77972 4.31097 2.97086 4.2986C3.162 4.28623 3.32654 4.43822 3.33837 4.63808L3.66311 10.1247C3.67494 10.3245 3.52958 10.4966 3.33843 10.5089C3.14729 10.5213 2.98275 10.3693 2.97092 10.1695L2.64618 4.68288ZM7.05574 4.2986C7.24689 4.31097 7.39225 4.48302 7.38042 4.68288L7.05568 10.1695C7.04385 10.3693 6.87931 10.5213 6.68817 10.5089C6.49703 10.4966 6.35166 10.3245 6.36349 10.1247L6.68823 4.63808C6.70006 4.43822 6.8646 4.28623 7.05574 4.2986Z" fill="#99A5B4"/>
<path fill-rule="evenodd" clip-rule="evenodd" d="M2.70438 1.11537C2.70438 0.499367 3.18091 0 3.76874 0H6.23126C6.81909 0 7.29562 0.499367 7.29562 1.11537V1.38244H8.88068C9.49886 1.38244 10 1.9076 10 2.55541C10 3.0112 9.75202 3.40572 9.39043 3.59988L8.59054 11.0301C8.53107 11.5825 8.08521 12 7.55474 12H2.44526C1.91479 12 1.46893 11.5825 1.40946 11.0301L0.609571 3.59988C0.247976 3.40572 0 3.0112 0 2.55541C0 1.9076 0.501136 1.38244 1.11932 1.38244H2.70438V1.11537ZM3.76874 0.180109C3.27583 0.180109 2.87626 0.598838 2.87626 1.11537V1.56255H1.11932C0.596058 1.56255 0.171871 2.00707 0.171871 2.55541C0.171871 2.95652 0.398753 3.30192 0.725432 3.45864L0.769608 3.47983L1.58025 11.0099C1.62991 11.4712 2.00226 11.8199 2.44526 11.8199H7.55474C7.99774 11.8199 8.37009 11.4712 8.41975 11.0099L9.23039 3.47983L9.27457 3.45864C9.60125 3.30191 9.82813 2.95652 9.82813 2.55541C9.82813 2.00707 9.40394 1.56255 8.88068 1.56255H7.12374V1.11537C7.12374 0.598838 6.72417 0.180109 6.23126 0.180109H3.76874ZM3.12165 1.11481C3.12165 0.740583 3.41114 0.437215 3.76825 0.437215H6.23078C6.41999 0.437215 6.59032 0.5225 6.70845 0.658112M6.70845 0.658112C6.70847 0.65814 6.70842 0.658084 6.70845 0.658112L6.58166 0.779709C6.58163 0.779681 6.58168 0.779738 6.58166 0.779709C6.58133 0.779334 6.58093 0.778874 6.5806 0.7785C6.49373 0.679629 6.36944 0.617883 6.23126 0.617883H3.76874C3.50655 0.617883 3.29401 0.840614 3.29401 1.11537V1.74632H3.12165V1.11481M6.7602 0.608744L6.8871 0.487265C7.03151 0.652773 7.11972 0.873378 7.11972 1.11537V1.74632H6.94736V1.11481C6.94736 0.920177 6.87682 0.743019 6.76091 0.609556C6.76069 0.609305 6.76042 0.608995 6.7602 0.608744L6.8871 0.487265C7.03119 0.652704 7.11923 0.873121 7.11923 1.11481V1.65626H7.0333M6.7602 0.608744C6.76019 0.608724 6.76022 0.608764 6.7602 0.608744V0.608744ZM3.76874 0.802209C3.60369 0.802209 3.4699 0.942414 3.4699 1.11537V1.38244H6.5301V1.11537C6.5301 0.942414 6.39631 0.802209 6.23126 0.802209H3.76874ZM3.29803 1.11537C3.29803 0.842943 3.50877 0.6221 3.76874 0.6221H6.23126C6.49123 0.6221 6.70197 0.842943 6.70197 1.11537V1.56255H3.29803V1.11537ZM0.417263 2.55485C0.417263 2.14882 0.731366 1.81966 1.11883 1.81966H8.88019C9.08581 1.81966 9.27086 1.91247 9.39906 2.06001L9.27204 2.18135C9.17506 2.06999 9.0357 2.00033 8.88068 2.00033H1.11932C0.826775 2.00033 0.589622 2.24885 0.589622 2.55541C0.589622 2.69953 0.64192 2.83064 0.727862 2.92937L0.600952 3.05083C0.486932 2.92015 0.417263 2.74592 0.417263 2.55485ZM9.45077 2.01059L9.57778 1.88925C9.73072 2.06491 9.8241 2.29884 9.8241 2.55541C9.8241 2.97349 9.57652 3.33075 9.22682 3.47536L8.41575 11.0095C8.36632 11.4686 7.9957 11.8157 7.55474 11.8157H2.44526C2.19368 11.8157 1.96497 11.7026 1.80587 11.5205C1.80557 11.5202 1.80527 11.5198 1.80497 11.5195C1.80495 11.5194 1.80498 11.5195 1.80497 11.5195L1.93183 11.3979C1.93185 11.398 1.93181 11.3979 1.93183 11.3979C1.93207 11.3982 1.93236 11.3986 1.9326 11.3988C2.06031 11.5448 2.24337 11.635 2.44477 11.635H7.55426C7.90774 11.635 8.20485 11.3568 8.24448 10.9887L9.06772 3.34151L9.12022 3.32352C9.42892 3.21774 9.65175 2.91345 9.65175 2.55485C9.65175 2.34517 9.57569 2.15431 9.45077 2.01059ZM1.11932 2.18465C0.923919 2.18465 0.765517 2.35065 0.765517 2.55541C0.765517 2.76018 0.923919 2.92617 1.11932 2.92617H8.88068C9.07608 2.92617 9.23448 2.76018 9.23448 2.55541C9.23448 2.35065 9.07608 2.18465 8.88068 2.18465H1.11932ZM0.593645 2.55541C0.593645 2.25118 0.828997 2.00454 1.11932 2.00454H8.88068C9.171 2.00454 9.40635 2.25118 9.40635 2.55541C9.40635 2.85965 9.171 3.10628 8.88068 3.10628H1.11932C0.828997 3.10628 0.593645 2.85965 0.593645 2.55541ZM0.421884 3.22119L0.548862 3.09981C0.548878 3.09983 0.548846 3.0998 0.548862 3.09981C0.549201 3.1002 0.549589 3.10065 0.549928 3.10103C0.638582 3.20238 0.751467 3.27989 0.878808 3.32352L0.931305 3.34151L0.952528 3.53875L0.825389 3.4951C0.668715 3.44132 0.53025 3.34579 0.421884 3.22119ZM1.00408 3.36339H8.99491L8.97552 3.54405H1.19692L1.99537 10.9609C2.00641 11.0634 2.04804 11.1551 2.11014 11.2267L1.98306 11.348C1.98303 11.3479 1.98309 11.348 1.98306 11.348C1.89714 11.2492 1.83934 11.1221 1.82409 10.9805L1.00408 3.36339ZM1.20143 3.54827H8.79857L8.00063 10.9604C7.97504 11.1982 7.7831 11.3779 7.55474 11.3779H2.44526C2.2169 11.3779 2.02496 11.1982 1.99937 10.9604L1.20143 3.54827ZM1.39378 3.72838L2.17015 10.9402C2.18595 11.0869 2.30437 11.1978 2.44526 11.1978H7.55474C7.69563 11.1978 7.81405 11.0869 7.82985 10.9402L8.60622 3.72838H1.39378ZM5.01067 4.40833C4.86991 4.40833 4.75581 4.52791 4.75581 4.67541V10.09C4.75581 10.2375 4.86991 10.3571 5.01067 10.3571C5.15142 10.3571 5.26553 10.2375 5.26553 10.09V4.67541C5.26553 4.52791 5.15142 4.40833 5.01067 4.40833ZM4.58393 4.67541C4.58393 4.42843 4.77499 4.22822 5.01067 4.22822C5.24634 4.22822 5.4374 4.42843 5.4374 4.67541V10.09C5.4374 10.337 5.24634 10.5372 5.01067 10.5372C4.77499 10.5372 4.58393 10.337 4.58393 10.09V4.67541ZM3.00043 4.23425C3.23565 4.219 3.43814 4.40646 3.4527 4.65296L3.77186 10.0572C3.78642 10.3037 3.60753 10.5159 3.3723 10.5311C3.13707 10.5464 2.93458 10.3589 2.92002 10.1124L2.60087 4.70821C2.58631 4.46171 2.7652 4.24951 3.00043 4.23425ZM3.28116 4.66409C3.27246 4.51687 3.15153 4.40491 3.01104 4.41402C2.87055 4.42313 2.76372 4.54986 2.77241 4.69708L3.09157 10.1013C3.10026 10.2485 3.2212 10.3605 3.36168 10.3514C3.50217 10.3423 3.60901 10.2155 3.60032 10.0683L3.28116 4.66409ZM6.57344 4.65296C6.588 4.40646 6.79049 4.219 7.02572 4.23425C7.26095 4.24951 7.43984 4.46171 7.42528 4.70821L7.10612 10.1124C7.09156 10.3589 6.88907 10.5464 6.65385 10.5311C6.41862 10.5159 6.23973 10.3037 6.25429 10.0572L6.57344 4.65296ZM7.0151 4.41402C6.87462 4.40491 6.75368 4.51687 6.74499 4.66409L6.42583 10.0683C6.41714 10.2155 6.52397 10.3423 6.66446 10.3514C6.80495 10.3605 6.92588 10.2485 6.93458 10.1013L7.25374 4.69708C7.26243 4.54986 7.15559 4.42313 7.0151 4.41402Z" fill="#99A5B4"/>
<path fill-rule="evenodd" clip-rule="evenodd" d="M2.71292 1.10191C2.71292 0.49334 3.18389 0 3.76485 0H6.23515C6.81611 0 7.28708 0.49334 7.28708 1.10191V1.38625H8.89293C9.50435 1.38625 10 1.90545 10 2.54592C10 2.99968 9.75131 3.39204 9.38956 3.58256L8.58619 11.0421C8.52743 11.5877 8.08692 12 7.56281 12H2.43719C1.91308 12 1.47257 11.5877 1.41381 11.0421L0.610442 3.58256C0.248687 3.39204 0 2.99968 0 2.54592C0 1.90545 0.495651 1.38625 1.10707 1.38625H2.71292V1.10191ZM3.76485 0.147537C3.26167 0.147537 2.85377 0.574823 2.85377 1.10191V1.53379H1.10707C0.573438 1.53379 0.140845 1.98694 0.140845 2.54592C0.140845 2.95484 0.372255 3.30692 0.705367 3.46667L0.741569 3.48403L1.55377 11.0256C1.60449 11.4965 1.98476 11.8525 2.43719 11.8525H7.56281C8.01524 11.8525 8.39551 11.4965 8.44623 11.0256L9.25843 3.48403L9.29463 3.46667C9.62774 3.30692 9.85915 2.95484 9.85915 2.54592C9.85915 1.98694 9.42656 1.53379 8.89293 1.53379H7.14623V1.10191C7.14623 0.574823 6.73833 0.147537 6.23515 0.147537H3.76485ZM3.1315 1.10135C3.1315 0.735222 3.41484 0.43842 3.76436 0.43842H6.23466C6.41986 0.43842 6.58657 0.521848 6.7022 0.654559M6.7022 0.654559C6.70222 0.654582 6.70218 0.654535 6.7022 0.654559L6.5983 0.754164C6.50824 0.651033 6.37894 0.586517 6.23515 0.586517H3.76485C3.49312 0.586517 3.27284 0.817265 3.27284 1.10191V1.71806H3.1315V1.10135M6.77742 0.582741L6.8814 0.483231C7.02372 0.646267 7.11063 0.86354 7.11063 1.10191V1.71806H6.96929V1.10135C6.96929 0.901522 6.89664 0.719586 6.77742 0.582741C6.77743 0.582757 6.7774 0.582724 6.77742 0.582741ZM3.76485 0.771351C3.59057 0.771351 3.44929 0.919345 3.44929 1.10191V1.38625H6.55071V1.10191C6.55071 0.919345 6.40943 0.771351 6.23515 0.771351H3.76485ZM3.30844 1.10191C3.30844 0.837863 3.51278 0.623814 3.76485 0.623814H6.23515C6.48722 0.623814 6.69156 0.837863 6.69156 1.10191V1.53379H3.30844V1.10191ZM9.29713 2.15961C9.29712 2.15959 9.29715 2.15964 9.29713 2.15961L9.40128 2.06028C9.27554 1.91563 9.09408 1.82467 8.89244 1.82467H1.10658C0.726608 1.82467 0.418581 2.14733 0.418581 2.54536C0.418581 2.73267 0.486889 2.90343 0.598714 3.03154L0.702714 2.93205C0.613952 2.83012 0.559914 2.69472 0.559914 2.54592C0.559914 2.22938 0.804883 1.97277 1.10707 1.97277H8.89293C9.05273 1.97277 9.19644 2.04443 9.29658 2.15897C9.29676 2.15919 9.29695 2.1594 9.29713 2.15961ZM9.47649 1.98846L9.58057 1.88906C9.73145 2.06228 9.82355 2.29292 9.82355 2.54592C9.82355 2.96164 9.57517 3.31641 9.22555 3.45662L8.41085 11.0214C8.36216 11.4735 7.99712 11.8152 7.56281 11.8152H2.43719C2.18941 11.8152 1.96415 11.7039 1.80743 11.5245C1.80713 11.5242 1.80683 11.5239 1.80653 11.5235C1.80652 11.5235 1.80655 11.5235 1.80653 11.5235L1.91049 11.424C2.04152 11.5741 2.22967 11.6671 2.4367 11.6671H7.56232C7.92496 11.6671 8.22975 11.3818 8.2704 11.0043L9.09511 3.3466L9.13813 3.33186C9.4541 3.22363 9.68222 2.9123 9.68222 2.54536C9.68222 2.33125 9.60466 2.13629 9.47726 1.98934C9.47702 1.98906 9.47673 1.98874 9.47649 1.98846C9.4765 1.98847 9.47648 1.98844 9.47649 1.98846ZM1.10707 2.1576C0.902334 2.1576 0.736364 2.33146 0.736364 2.54592C0.736364 2.76038 0.902334 2.93424 1.10707 2.93424H8.89293C9.09767 2.93424 9.26364 2.76038 9.26364 2.54592C9.26364 2.33146 9.09767 2.1576 8.89293 2.1576H1.10707ZM0.595519 2.54592C0.595519 2.24998 0.824547 2.01007 1.10707 2.01007H8.89293C9.17545 2.01007 9.40448 2.24998 9.40448 2.54592C9.40448 2.84186 9.17545 3.08177 8.89293 3.08177H1.10707C0.824547 3.08177 0.595519 2.84186 0.595519 2.54592ZM0.419098 3.2024L0.523154 3.10297C0.523167 3.10298 0.52314 3.10295 0.523154 3.10297C0.523502 3.10337 0.523891 3.10381 0.52424 3.10421C0.61497 3.20789 0.730515 3.2872 0.860892 3.33186L0.903912 3.3466L0.921312 3.50824L0.817124 3.47249C0.662598 3.41946 0.526008 3.32527 0.419098 3.2024ZM1.00914 3.37265H8.98986L8.97396 3.52075H1.16725L1.9702 10.9764C1.98166 11.0828 2.02488 11.178 2.08934 11.2522L1.9852 11.3516C1.90114 11.255 1.84467 11.1309 1.82975 10.9924L1.00914 3.37265ZM1.2071 3.55805H8.7929L7.99442 10.9722C7.96964 11.2023 7.78385 11.3762 7.56281 11.3762H2.43719C2.21615 11.3762 2.03036 11.2023 2.00558 10.9722L1.2071 3.55805ZM1.36473 3.70559L2.14553 10.9557C2.16228 11.1111 2.28782 11.2286 2.43719 11.2286H7.56281C7.71218 11.2286 7.83772 11.1111 7.85447 10.9557L8.63527 3.70559H1.36473ZM5.0107 4.38741C4.86078 4.38741 4.73925 4.51472 4.73925 4.67176V10.1012C4.73925 10.2583 4.86078 10.3856 5.0107 10.3856C5.16062 10.3856 5.28215 10.2583 5.28215 10.1012V4.67176C5.28215 4.51472 5.16062 4.38741 5.0107 4.38741ZM4.5984 4.67176C4.5984 4.43324 4.783 4.23987 5.0107 4.23987C5.2384 4.23987 5.42299 4.43324 5.42299 4.67176V10.1012C5.42299 10.3398 5.2384 10.5331 5.0107 10.5331C4.783 10.5331 4.5984 10.3398 4.5984 10.1012V4.67176ZM2.99509 4.24589C3.22236 4.23116 3.418 4.4122 3.43206 4.65027L3.75223 10.0694C3.76629 10.3075 3.59346 10.5124 3.36619 10.5271C3.13892 10.5419 2.94328 10.3608 2.92921 10.1227L2.60905 4.70363C2.59498 4.46556 2.76782 4.26062 2.99509 4.24589ZM3.29149 4.65939C3.28223 4.50264 3.15342 4.38344 3.00379 4.39315C2.85416 4.40285 2.74036 4.53777 2.74962 4.69451L3.06979 10.1136C3.07905 10.2704 3.20786 10.3896 3.35749 10.3799C3.50712 10.3702 3.62091 10.2352 3.61165 10.0785L3.29149 4.65939ZM6.59417 4.65027C6.60823 4.4122 6.80387 4.23116 7.03114 4.24589C7.25841 4.26062 7.43125 4.46556 7.41718 4.70363L7.09702 10.1227C7.08295 10.3608 6.88731 10.5419 6.66004 10.5271C6.43277 10.5124 6.25994 10.3075 6.274 10.0694L6.59417 4.65027ZM7.02244 4.39315C6.87281 4.38344 6.744 4.50264 6.73474 4.65939L6.41458 10.0785C6.40532 10.2352 6.51911 10.3702 6.66874 10.3799C6.81837 10.3896 6.94718 10.2704 6.95644 10.1136L7.2766 4.69451C7.28586 4.53777 7.17207 4.40285 7.02244 4.39315Z" fill="#99A5B4"/>
</svg>
