<svg width="14" height="14" viewBox="0 0 14 14" fill="none" xmlns="http://www.w3.org/2000/svg">
<path fill-rule="evenodd" clip-rule="evenodd" d="M0.439453 10.3391C-0.146484 10.9245 -0.146484 11.8747 0.439453 12.4602C0.643555 12.6643 0.891602 12.7971 1.15332 12.8591C1.64258 12.9753 2.17871 12.842 2.56055 12.4602L6.37891 8.64229L10.4932 12.7566C11.0791 13.3425 12.0283 13.3425 12.6143 12.7566C13.2002 12.1706 13.2002 11.2209 12.6143 10.635L8.5 6.52071L12.46 2.56075C13.0459 1.97481 13.0459 1.02511 12.46 0.439657C12.1084 0.0876062 11.625 -0.0530188 11.1689 0.017782C10.8652 0.0651452 10.5732 0.20577 10.3389 0.439657L6.37891 4.39962L2.71484 0.735555C2.12891 0.150106 1.17969 0.150106 0.59375 0.735555C0.0078125 1.32149 0.0078125 2.2712 0.59375 2.85714L4.25781 6.52071L0.439453 10.3391Z" fill="white"/>
</svg>
