<svg width="11" height="19" viewBox="0 0 11 19" fill="none" xmlns="http://www.w3.org/2000/svg">
<path fill-rule="evenodd" clip-rule="evenodd" d="M10.1873 4.43725C10.5374 4.78735 10.5374 5.35497 10.1873 5.70506L7.0178 8.87449L7.01795 8.87464L5.75015 10.1425L5.74999 10.1423L5.74987 10.1424L4.48204 8.8746L4.48218 8.87447L1.31285 5.70511C0.962759 5.35501 0.962759 4.7874 1.31285 4.4373C1.66295 4.0872 2.23056 4.0872 2.58065 4.4373L5.74999 7.60667L8.91943 4.43725C9.26953 4.08715 9.83715 4.08715 10.1873 4.43725Z" fill="#E16685"/>
<path fill-rule="evenodd" clip-rule="evenodd" d="M1.31275 13.7053C0.962646 13.3552 0.962645 12.7876 1.31274 12.4375L4.48219 9.26808L4.48204 9.26793L5.74983 8.00011L5.75 8.00027L5.75012 8.00015L7.01795 9.26796L7.01781 9.26809L10.1871 12.4374C10.5372 12.7875 10.5372 13.3552 10.1871 13.7053C9.83706 14.0554 9.26944 14.0554 8.91935 13.7053L5.75 10.5359L2.58057 13.7053C2.23047 14.0554 1.66285 14.0554 1.31275 13.7053Z" fill="#E16685"/>
</svg>
