<svg width="22" height="22" viewBox="0 0 22 22" fill="none" xmlns="http://www.w3.org/2000/svg">
<g clip-path="url(#clip0)">
<path fill-rule="evenodd" clip-rule="evenodd" d="M18.336 7.33278C18.336 6.32011 19.1569 5.49916 20.1696 5.49916C21.1175 5.50092 21.9079 6.22484 21.9925 7.16896C22.083 8.17758 21.3387 9.06858 20.33 9.15904L19.2522 15.6241C19.1912 17.4041 15.0721 18.3344 11.0017 18.3344C6.93256 18.3344 2.81467 17.4046 2.75123 15.6257L1.67315 9.15904C0.726192 9.07589 -0.000171809 8.28278 3.04835e-08 7.33218C0.000171992 6.31951 0.821253 5.49869 1.83387 5.49886C2.84658 5.49903 3.66736 6.32011 3.66719 7.33278C3.66685 7.525 3.6359 7.71594 3.57552 7.89846L5.06341 8.84369C6.04229 9.46696 7.33257 9.26025 8.06775 8.36237L9.52546 6.57921C9.29348 6.26691 9.16808 5.88826 9.16791 5.4992C9.16791 4.48654 9.98886 3.66559 11.0015 3.66559C12.0142 3.66559 12.8351 4.48654 12.8351 5.4992C12.835 5.88826 12.7096 6.26691 12.4776 6.57921L13.9353 8.36237C14.6706 9.26077 15.9615 9.46752 16.9406 8.84369L18.4277 7.89846C18.3673 7.71594 18.3364 7.525 18.336 7.33278Z" fill="#FFC107"/>
</g>
<defs>
<clipPath id="clip0">
<rect width="22" height="22" fill="white"/>
</clipPath>
</defs>
</svg>
