<svg width="32" height="20" viewBox="0 0 32 20" fill="none" xmlns="http://www.w3.org/2000/svg">
<path fill-rule="evenodd" clip-rule="evenodd" d="M16 10.001L22 0.000975609L10 0.000975609L16 10.001Z" fill="#598CF5"/>
<path d="M0.178955 15.5109H1.49395C1.72395 15.5109 1.93395 15.5476 2.12396 15.6209C2.31395 15.6943 2.47562 15.8043 2.60896 15.9509C2.74229 16.0943 2.84562 16.2759 2.91896 16.4959C2.99229 16.7126 3.02896 16.9659 3.02896 17.2559C3.02896 17.5459 2.99229 17.8009 2.91896 18.0209C2.84562 18.2376 2.74229 18.4193 2.60896 18.5659C2.47562 18.7093 2.31395 18.8176 2.12396 18.8909C1.93395 18.9643 1.72395 19.0009 1.49395 19.0009H0.178955V15.5109ZM1.49395 18.3259C1.72062 18.3259 1.89896 18.2626 2.02896 18.1359C2.15896 18.0093 2.22396 17.8059 2.22396 17.5259V16.9859C2.22396 16.7059 2.15896 16.5026 2.02896 16.3759C1.89896 16.2493 1.72062 16.1859 1.49395 16.1859H0.938955V18.3259H1.49395Z" fill="#598CF5"/>
<path d="M3.66528 19.0009V15.5109H6.04028V16.1859H4.42528V16.9009H5.81028V17.5709H4.42528V18.3259H6.04028V19.0009H3.66528Z" fill="#598CF5"/>
<path d="M7.83239 19.0609C7.52573 19.0609 7.26573 19.0093 7.05239 18.9059C6.83906 18.7993 6.65739 18.6626 6.50739 18.4959L7.00739 17.9909C7.24406 18.2576 7.53573 18.3909 7.88239 18.3909C8.06906 18.3909 8.20739 18.3526 8.29739 18.2759C8.38739 18.1993 8.43239 18.0976 8.43239 17.9709C8.43239 17.8743 8.40573 17.7943 8.35239 17.7309C8.29906 17.6643 8.19073 17.6193 8.02739 17.5959L7.68239 17.5509C7.31239 17.5043 7.04073 17.3926 6.86739 17.2159C6.69739 17.0393 6.61239 16.8043 6.61239 16.5109C6.61239 16.3543 6.64239 16.2109 6.70239 16.0809C6.76239 15.9509 6.84739 15.8393 6.95739 15.7459C7.07073 15.6526 7.20739 15.5809 7.36739 15.5309C7.53073 15.4776 7.71573 15.4509 7.92239 15.4509C8.18573 15.4509 8.41739 15.4926 8.61739 15.5759C8.81739 15.6593 8.98906 15.7809 9.13239 15.9409L8.62739 16.4509C8.54406 16.3543 8.44239 16.2759 8.32239 16.2159C8.20573 16.1526 8.05739 16.1209 7.87739 16.1209C7.70739 16.1209 7.58073 16.1509 7.49739 16.2109C7.41406 16.2709 7.37239 16.3543 7.37239 16.4609C7.37239 16.5809 7.40406 16.6676 7.46739 16.7209C7.53406 16.7743 7.64073 16.8126 7.78739 16.8359L8.13239 16.8909C8.49239 16.9476 8.75906 17.0593 8.93239 17.2259C9.10573 17.3893 9.19239 17.6226 9.19239 17.9259C9.19239 18.0926 9.16239 18.2459 9.10239 18.3859C9.04239 18.5259 8.95406 18.6459 8.83739 18.7459C8.72406 18.8459 8.58239 18.9243 8.41239 18.9809C8.24239 19.0343 8.04906 19.0609 7.83239 19.0609Z" fill="#598CF5"/>
<path d="M11.2325 19.0609C10.9958 19.0609 10.7825 19.0243 10.5925 18.9509C10.4025 18.8743 10.2408 18.7626 10.1075 18.6159C9.97418 18.4659 9.87084 18.2809 9.79751 18.0609C9.72418 17.8376 9.68751 17.5776 9.68751 17.2809C9.68751 16.9876 9.72418 16.7276 9.79751 16.5009C9.87084 16.2709 9.97418 16.0793 10.1075 15.9259C10.2408 15.7693 10.4025 15.6509 10.5925 15.5709C10.7825 15.4909 10.9958 15.4509 11.2325 15.4509C11.5558 15.4509 11.8225 15.5176 12.0325 15.6509C12.2425 15.7809 12.4108 15.9876 12.5375 16.2709L11.8825 16.6109C11.8358 16.4643 11.7625 16.3476 11.6625 16.2609C11.5658 16.1709 11.4225 16.1259 11.2325 16.1259C11.0092 16.1259 10.8292 16.1993 10.6925 16.3459C10.5592 16.4893 10.4925 16.6993 10.4925 16.9759V17.5359C10.4925 17.8126 10.5592 18.0243 10.6925 18.1709C10.8292 18.3143 11.0092 18.3859 11.2325 18.3859C11.4192 18.3859 11.5675 18.3359 11.6775 18.2359C11.7908 18.1326 11.8742 18.0093 11.9275 17.8659L12.5475 18.2259C12.4175 18.4926 12.2458 18.6993 12.0325 18.8459C11.8225 18.9893 11.5558 19.0609 11.2325 19.0609Z" fill="#598CF5"/>
<path d="M13.0793 19.0009V15.5109H15.4543V16.1859H13.8393V16.9009H15.2243V17.5709H13.8393V18.3259H15.4543V19.0009H13.0793Z" fill="#598CF5"/>
<path d="M17.1815 17.3509L16.8465 16.6509H16.8315V19.0009H16.1165V15.5109H16.9465L17.9015 17.1609L18.2365 17.8609H18.2515V15.5109H18.9665V19.0009H18.1365L17.1815 17.3509Z" fill="#598CF5"/>
<path d="M19.7346 15.5109H21.0496C21.2796 15.5109 21.4896 15.5476 21.6796 15.6209C21.8696 15.6943 22.0313 15.8043 22.1646 15.9509C22.298 16.0943 22.4013 16.2759 22.4746 16.4959C22.548 16.7126 22.5846 16.9659 22.5846 17.2559C22.5846 17.5459 22.548 17.8009 22.4746 18.0209C22.4013 18.2376 22.298 18.4193 22.1646 18.5659C22.0313 18.7093 21.8696 18.8176 21.6796 18.8909C21.4896 18.9643 21.2796 19.0009 21.0496 19.0009H19.7346V15.5109ZM21.0496 18.3259C21.2763 18.3259 21.4546 18.2626 21.5846 18.1359C21.7146 18.0093 21.7796 17.8059 21.7796 17.5259V16.9859C21.7796 16.7059 21.7146 16.5026 21.5846 16.3759C21.4546 16.2493 21.2763 16.1859 21.0496 16.1859H20.4946V18.3259H21.0496Z" fill="#598CF5"/>
<path d="M23.0859 19.0009V18.3959H23.5359V16.1159H23.0859V15.5109H24.7459V16.1159H24.2959V18.3959H24.7459V19.0009H23.0859Z" fill="#598CF5"/>
<path d="M26.4442 17.3509L26.1091 16.6509H26.0942V19.0009H25.3792V15.5109H26.2092L27.1642 17.1609L27.4992 17.8609H27.5142V15.5109H28.2292V19.0009H27.3992L26.4442 17.3509Z" fill="#598CF5"/>
<path d="M31.2123 18.4459H31.1873C31.1606 18.6226 31.0706 18.7693 30.9173 18.8859C30.764 19.0026 30.5556 19.0609 30.2923 19.0609C30.0923 19.0609 29.9056 19.0226 29.7323 18.9459C29.559 18.8693 29.4073 18.7559 29.2773 18.6059C29.1473 18.4559 29.0456 18.2693 28.9723 18.0459C28.899 17.8226 28.8623 17.5643 28.8623 17.2709C28.8623 16.9776 28.9006 16.7176 28.9773 16.4909C29.054 16.2643 29.1606 16.0743 29.2973 15.9209C29.4373 15.7676 29.604 15.6509 29.7973 15.5709C29.9906 15.4909 30.2056 15.4509 30.4423 15.4509C30.7556 15.4509 31.0256 15.5193 31.2523 15.6559C31.479 15.7893 31.6573 15.9909 31.7873 16.2609L31.1673 16.6159C31.114 16.4793 31.0306 16.3643 30.9173 16.2709C30.804 16.1743 30.6456 16.1259 30.4423 16.1259C30.2056 16.1259 30.0173 16.1943 29.8773 16.3309C29.7373 16.4676 29.6673 16.6826 29.6673 16.9759V17.5359C29.6673 17.8259 29.7373 18.0409 29.8773 18.1809C30.0173 18.3176 30.2056 18.3859 30.4423 18.3859C30.5356 18.3859 30.624 18.3759 30.7073 18.3559C30.7906 18.3326 30.864 18.2993 30.9273 18.2559C30.9906 18.2093 31.039 18.1543 31.0723 18.0909C31.109 18.0276 31.1273 17.9526 31.1273 17.8659V17.6909H30.4773V17.0559H31.8523V19.0009H31.2123V18.4459Z" fill="#598CF5"/>
</svg>
