<svg width="21" height="14" viewBox="0 0 21 14" fill="none" xmlns="http://www.w3.org/2000/svg">
<path d="M4.128 13.54C2.976 13.54 2.13 13.252 1.59 12.676C1.086 12.064 0.834 11.29 0.834 10.354V9.598C0.834 8.122 1.266 6.502 2.13 4.738C2.994 2.938 4.2 1.372 5.748 0.0399995H9.366C8.286 1.192 7.404 2.29 6.72 3.334C6.072 4.342 5.604 5.476 5.316 6.736C6.036 6.916 6.558 7.258 6.882 7.762C7.242 8.266 7.422 8.878 7.422 9.598V10.354C7.422 11.29 7.152 12.064 6.612 12.676C6.108 13.252 5.28 13.54 4.128 13.54ZM15.036 13.54C13.884 13.54 13.038 13.252 12.498 12.676C11.994 12.064 11.742 11.29 11.742 10.354V9.598C11.742 8.122 12.174 6.502 13.038 4.738C13.902 2.938 15.108 1.372 16.656 0.0399995H20.274C19.194 1.192 18.312 2.29 17.628 3.334C16.98 4.342 16.512 5.476 16.224 6.736C16.944 6.916 17.466 7.258 17.79 7.762C18.15 8.266 18.33 8.878 18.33 9.598V10.354C18.33 11.29 18.06 12.064 17.52 12.676C17.016 13.252 16.188 13.54 15.036 13.54Z" fill="#598CF5"/>
</svg>
