<svg width="32" height="20" viewBox="0 0 32 20" fill="none" xmlns="http://www.w3.org/2000/svg">
<path fill-rule="evenodd" clip-rule="evenodd" d="M16 10.001L22 0.000975609L10 0.000975609L16 10.001Z" fill="#B3C0D3"/>
<path d="M0.178955 15.511H1.49395C1.72395 15.511 1.93395 15.5477 2.12396 15.621C2.31395 15.6944 2.47562 15.8044 2.60896 15.951C2.74229 16.0944 2.84562 16.276 2.91896 16.496C2.99229 16.7127 3.02896 16.966 3.02896 17.256C3.02896 17.546 2.99229 17.801 2.91896 18.021C2.84562 18.2377 2.74229 18.4194 2.60896 18.5661C2.47562 18.7094 2.31395 18.8177 2.12396 18.891C1.93395 18.9644 1.72395 19.001 1.49395 19.001H0.178955V15.511ZM1.49395 18.326C1.72062 18.326 1.89896 18.2627 2.02896 18.136C2.15896 18.0094 2.22396 17.806 2.22396 17.526V16.986C2.22396 16.706 2.15896 16.5027 2.02896 16.376C1.89896 16.2494 1.72062 16.186 1.49395 16.186H0.938955V18.326H1.49395Z" fill="#B3C0D3"/>
<path d="M3.66528 19.001V15.511H6.04028V16.186H4.42528V16.901H5.81028V17.571H4.42528V18.326H6.04028V19.001H3.66528Z" fill="#B3C0D3"/>
<path d="M7.83239 19.061C7.52573 19.061 7.26573 19.0094 7.05239 18.9061C6.83906 18.7994 6.65739 18.6627 6.50739 18.496L7.00739 17.9911C7.24406 18.2577 7.53573 18.391 7.88239 18.391C8.06906 18.391 8.20739 18.3527 8.29739 18.2761C8.38739 18.1994 8.43239 18.0977 8.43239 17.9711C8.43239 17.8744 8.40573 17.7944 8.35239 17.7311C8.29906 17.6644 8.19073 17.6194 8.02739 17.596L7.68239 17.551C7.31239 17.5044 7.04073 17.3927 6.86739 17.216C6.69739 17.0394 6.61239 16.8044 6.61239 16.511C6.61239 16.3544 6.64239 16.211 6.70239 16.081C6.76239 15.951 6.84739 15.8394 6.95739 15.746C7.07073 15.6527 7.20739 15.581 7.36739 15.531C7.53073 15.4777 7.71573 15.451 7.92239 15.451C8.18573 15.451 8.41739 15.4927 8.61739 15.576C8.81739 15.6594 8.98906 15.781 9.13239 15.941L8.62739 16.451C8.54406 16.3544 8.44239 16.276 8.32239 16.216C8.20573 16.1527 8.05739 16.121 7.87739 16.121C7.70739 16.121 7.58073 16.151 7.49739 16.211C7.41406 16.271 7.37239 16.3544 7.37239 16.4611C7.37239 16.581 7.40406 16.6677 7.46739 16.721C7.53406 16.7744 7.64073 16.8127 7.78739 16.836L8.13239 16.891C8.49239 16.9477 8.75906 17.0594 8.93239 17.226C9.10573 17.3894 9.19239 17.6227 9.19239 17.926C9.19239 18.0927 9.16239 18.246 9.10239 18.386C9.04239 18.526 8.95406 18.646 8.83739 18.746C8.72406 18.846 8.58239 18.9244 8.41239 18.9811C8.24239 19.0344 8.04906 19.061 7.83239 19.061Z" fill="#B3C0D3"/>
<path d="M11.2325 19.061C10.9958 19.061 10.7825 19.0244 10.5925 18.951C10.4025 18.8744 10.2408 18.7627 10.1075 18.616C9.97418 18.466 9.87084 18.281 9.79751 18.061C9.72418 17.8377 9.68751 17.5777 9.68751 17.281C9.68751 16.9877 9.72418 16.7277 9.79751 16.501C9.87084 16.271 9.97418 16.0794 10.1075 15.926C10.2408 15.7694 10.4025 15.651 10.5925 15.571C10.7825 15.491 10.9958 15.451 11.2325 15.451C11.5558 15.451 11.8225 15.5177 12.0325 15.651C12.2425 15.781 12.4108 15.9877 12.5375 16.271L11.8825 16.611C11.8358 16.4644 11.7625 16.3477 11.6625 16.261C11.5658 16.171 11.4225 16.126 11.2325 16.126C11.0092 16.126 10.8292 16.1994 10.6925 16.346C10.5592 16.4894 10.4925 16.6994 10.4925 16.976V17.536C10.4925 17.8127 10.5592 18.0244 10.6925 18.1711C10.8292 18.3144 11.0092 18.386 11.2325 18.386C11.4192 18.386 11.5675 18.3361 11.6775 18.2361C11.7908 18.1327 11.8742 18.0094 11.9275 17.8661L12.5475 18.226C12.4175 18.4927 12.2458 18.6994 12.0325 18.846C11.8225 18.9894 11.5558 19.061 11.2325 19.061Z" fill="#B3C0D3"/>
<path d="M13.0793 19.001V15.511H15.4543V16.186H13.8393V16.901H15.2243V17.571H13.8393V18.326H15.4543V19.001H13.0793Z" fill="#B3C0D3"/>
<path d="M17.1815 17.351L16.8465 16.651H16.8315V19.001H16.1165V15.511H16.9465L17.9015 17.161L18.2365 17.861H18.2515V15.511H18.9665V19.001H18.1365L17.1815 17.351Z" fill="#B3C0D3"/>
<path d="M19.7346 15.511H21.0496C21.2796 15.511 21.4896 15.5477 21.6796 15.621C21.8696 15.6944 22.0313 15.8044 22.1646 15.951C22.298 16.0944 22.4013 16.276 22.4746 16.496C22.548 16.7127 22.5846 16.966 22.5846 17.256C22.5846 17.546 22.548 17.801 22.4746 18.021C22.4013 18.2377 22.298 18.4194 22.1646 18.5661C22.0313 18.7094 21.8696 18.8177 21.6796 18.891C21.4896 18.9644 21.2796 19.001 21.0496 19.001H19.7346V15.511ZM21.0496 18.326C21.2763 18.326 21.4546 18.2627 21.5846 18.136C21.7146 18.0094 21.7796 17.806 21.7796 17.526V16.986C21.7796 16.706 21.7146 16.5027 21.5846 16.376C21.4546 16.2494 21.2763 16.186 21.0496 16.186H20.4946V18.326H21.0496Z" fill="#B3C0D3"/>
<path d="M23.0859 19.001V18.396H23.5359V16.116H23.0859V15.511H24.7459V16.116H24.2959V18.396H24.7459V19.001H23.0859Z" fill="#B3C0D3"/>
<path d="M26.4442 17.351L26.1091 16.651H26.0942V19.001H25.3792V15.511H26.2092L27.1642 17.161L27.4992 17.861H27.5142V15.511H28.2292V19.001H27.3992L26.4442 17.351Z" fill="#B3C0D3"/>
<path d="M31.2123 18.4461H31.1873C31.1606 18.6227 31.0706 18.7694 30.9173 18.8861C30.764 19.0027 30.5556 19.061 30.2923 19.061C30.0923 19.061 29.9056 19.0227 29.7323 18.9461C29.559 18.8694 29.4073 18.7561 29.2773 18.6061C29.1473 18.4561 29.0456 18.2694 28.9723 18.0461C28.899 17.8227 28.8623 17.5644 28.8623 17.271C28.8623 16.9777 28.9006 16.7177 28.9773 16.491C29.054 16.2644 29.1606 16.0744 29.2973 15.921C29.4373 15.7677 29.604 15.651 29.7973 15.571C29.9906 15.491 30.2056 15.451 30.4423 15.451C30.7556 15.451 31.0256 15.5194 31.2523 15.656C31.479 15.7894 31.6573 15.991 31.7873 16.261L31.1673 16.616C31.114 16.4794 31.0306 16.3644 30.9173 16.271C30.804 16.1744 30.6456 16.126 30.4423 16.126C30.2056 16.126 30.0173 16.1944 29.8773 16.331C29.7373 16.4677 29.6673 16.6827 29.6673 16.976V17.536C29.6673 17.826 29.7373 18.041 29.8773 18.181C30.0173 18.3177 30.2056 18.386 30.4423 18.386C30.5356 18.386 30.624 18.3761 30.7073 18.3561C30.7906 18.3327 30.864 18.2994 30.9273 18.2561C30.9906 18.2094 31.039 18.1544 31.0723 18.0911C31.109 18.0277 31.1273 17.9527 31.1273 17.8661V17.691H30.4773V17.056H31.8523V19.001H31.2123V18.4461Z" fill="#B3C0D3"/>
</svg>
