<svg width="20" height="14" viewBox="0 0 20 14" fill="none" xmlns="http://www.w3.org/2000/svg">
<path d="M5.614 0.499997C6.766 0.499997 7.594 0.805997 8.098 1.418C8.638 1.994 8.908 2.75 8.908 3.686V4.442C8.908 5.918 8.476 7.556 7.612 9.356C6.748 11.12 5.542 12.668 3.994 14H0.376C1.456 12.848 2.32 11.768 2.968 10.76C3.652 9.716 4.138 8.564 4.426 7.304C3.706 7.124 3.166 6.782 2.806 6.278C2.482 5.774 2.32 5.162 2.32 4.442V3.686C2.32 2.75 2.572 1.994 3.076 1.418C3.616 0.805997 4.462 0.499997 5.614 0.499997ZM16.468 0.499997C17.62 0.499997 18.448 0.805997 18.952 1.418C19.492 1.994 19.762 2.75 19.762 3.686V4.442C19.762 5.918 19.33 7.556 18.466 9.356C17.602 11.12 16.396 12.668 14.848 14H11.23C12.31 12.848 13.174 11.768 13.822 10.76C14.506 9.716 14.992 8.564 15.28 7.304C14.56 7.124 14.02 6.782 13.66 6.278C13.336 5.774 13.174 5.162 13.174 4.442V3.686C13.174 2.75 13.426 1.994 13.93 1.418C14.47 0.805997 15.316 0.499997 16.468 0.499997Z" fill="#598CF5"/>
</svg>
