<svg width="26" height="22" viewBox="0 0 26 22" fill="none" xmlns="http://www.w3.org/2000/svg">
<g clip-path="url(#clip0)">
<path d="M2.49549 7.68553C2.82438 7.88191 3.8158 8.46516 5.46978 9.43499C7.12382 10.4048 8.39093 11.1516 9.27115 11.6753C9.36786 11.7327 9.57332 11.8574 9.88763 12.0498C10.202 12.2423 10.4632 12.3978 10.671 12.5164C10.879 12.635 11.1305 12.7681 11.4256 12.9153C11.7207 13.0625 11.9988 13.1732 12.26 13.2464C12.5212 13.3203 12.763 13.3569 12.9854 13.3569H13H13.0146C13.2371 13.3569 13.479 13.3203 13.7402 13.2464C14.0012 13.1732 14.2796 13.0624 14.5744 12.9153C14.8694 12.7679 15.1208 12.635 15.3288 12.5164C15.5368 12.3978 15.7978 12.2423 16.1123 12.0498C16.4265 11.8573 16.6322 11.7327 16.729 11.6753C17.6187 11.1516 19.8823 9.82152 23.519 7.68527C24.2251 7.26804 24.815 6.76459 25.2889 6.17528C25.7631 5.58622 26 4.96826 26 4.32175C26 3.7815 25.7701 3.31903 25.3106 2.9344C24.8512 2.54968 24.307 2.35742 23.6785 2.35742H2.32133C1.57659 2.35742 1.00346 2.57019 0.602045 2.99572C0.200682 3.42133 0 3.95333 0 4.59167C0 5.10728 0.266085 5.66603 0.798001 6.26755C1.32987 6.86913 1.89588 7.34183 2.49549 7.68553Z" fill="#88ACDA"/>
<path d="M24.5489 8.99919C21.3766 10.816 18.9678 12.2279 17.3237 13.2347C16.7724 13.5784 16.3251 13.8466 15.9817 14.0388C15.6382 14.2311 15.1814 14.4276 14.6106 14.628C14.04 14.8287 13.5082 14.9288 13.0148 14.9288H13H12.9855C12.4922 14.9288 11.9601 14.8287 11.3895 14.628C10.8189 14.4276 10.3618 14.2311 10.0184 14.0388C9.67515 13.8466 9.22775 13.5784 8.67647 13.2347C7.37059 12.4245 4.96699 11.0125 1.46555 8.99919C0.91407 8.68838 0.425604 8.33213 0 7.93115V17.6786C0 18.2192 0.227209 18.6814 0.681881 19.066C1.13645 19.4509 1.68305 19.6432 2.32148 19.6432H23.6787C24.317 19.6432 24.8635 19.4509 25.3182 19.066C25.7729 18.6812 26 18.2192 26 17.6786V7.93115C25.584 8.32383 25.1006 8.68009 24.5489 8.99919Z" fill="#88ACDA"/>
</g>
<defs>
<clipPath id="clip0">
<rect width="26" height="22" fill="white"/>
</clipPath>
</defs>
</svg>
