<svg width="40" height="40" viewBox="0 0 40 40" fill="none" xmlns="http://www.w3.org/2000/svg">
<g clip-path="url(#clip0)">
<path d="M37.2979 15.8556V5.33476C37.2979 5.04191 37.0602 4.8043 36.7674 4.8043H15.4958C15.3093 4.8043 15.1366 4.70692 15.0413 4.54667L13.278 1.60773C13.182 1.44818 13.0093 1.3501 12.8235 1.3501H3.29316C3.0003 1.35079 2.7627 1.58839 2.7627 1.88125V15.8556H37.2979Z" fill="#B5885B"/>
<path d="M35.2259 13.0928H4.83496V15.8556H35.2259V13.0928Z" fill="white"/>
<path d="M34.5349 11.021H5.52539V13.0931H34.5349V11.021Z" fill="#E7ECED"/>
<path d="M33.8444 8.94873H6.21631V11.0208H33.8444V8.94873Z" fill="#C7CAC7"/>
<path d="M36.416 38.6492H3.58416C3.49161 38.6492 3.41287 38.5815 3.39905 38.4903L0.00217558 16.0715C-0.015092 15.9582 0.0726273 15.856 0.187284 15.856H39.8129C39.9276 15.856 40.0153 15.9582 39.998 16.0715L36.6012 38.4903C36.5873 38.5815 36.5086 38.6492 36.416 38.6492Z" fill="#F7B563"/>
</g>
<defs>
<clipPath id="clip0">
<rect width="40" height="40" fill="white"/>
</clipPath>
</defs>
</svg>
