<svg width="43" height="41" viewBox="0 0 43 41" fill="none" xmlns="http://www.w3.org/2000/svg">
<g clip-path="url(#clip0)">
<path d="M37.2979 16.8556V6.33476C37.2979 6.04191 37.0602 5.8043 36.7674 5.8043H15.4958C15.3093 5.8043 15.1366 5.70692 15.0413 5.54667L13.278 2.60773C13.182 2.44818 13.0093 2.3501 12.8235 2.3501H3.29316C3.0003 2.35079 2.7627 2.58839 2.7627 2.88125V16.8556H37.2979Z" fill="#B5885B"/>
<path d="M35.2259 14.0928H4.83496V16.8556H35.2259V14.0928Z" fill="white"/>
<path d="M34.5349 12.021H5.52539V14.0931H34.5349V12.021Z" fill="#E7ECED"/>
<path d="M33.8444 9.94873H6.21631V12.0208H33.8444V9.94873Z" fill="#C7CAC7"/>
<path d="M36.416 39.6492H3.58416C3.49161 39.6492 3.41287 39.5815 3.39905 39.4903L0.00217558 17.0715C-0.015092 16.9582 0.0726273 16.856 0.187284 16.856H39.8129C39.9276 16.856 40.0153 16.9582 39.998 17.0715L36.6012 39.4903C36.5873 39.5815 36.5086 39.6492 36.416 39.6492Z" fill="#F7B563"/>
</g>
<circle cx="37" cy="6" r="6" fill="#598CF5"/>
<path d="M36.3938 6.13076L35.8296 5.16801H35.8043V8.4001H34.6001V3.6001H35.998L37.6064 5.86944L38.1706 6.83219H38.1959V3.6001H39.4001V8.4001H38.0022L36.3938 6.13076Z" fill="white"/>
<defs>
<clipPath id="clip0">
<rect width="40" height="40" fill="white" transform="translate(0 1)"/>
</clipPath>
</defs>
</svg>
