<svg width="16" height="16" viewBox="0 0 16 16" fill="none" xmlns="http://www.w3.org/2000/svg">
<path d="M8.00006 8.7619C6.27014 8.7619 4.80038 9.26494 3.84038 10.0534V11.52H12.1604V10.0534C11.2004 9.26494 9.7303 8.7619 8.00006 8.7619ZM15.6388 8.00926L7.9799 4.47998L0.324219 8.00926L1.60038 8.59326V9.4915C1.28038 9.55774 1.27942 9.72542 1.27942 9.92478C1.27942 10.0425 1.31846 10.1805 1.3927 10.263L0.954939 11.2H2.51654L2.08262 10.2624C2.15558 10.1798 2.21542 10.0582 2.21542 9.94046C2.21542 9.74142 1.92038 9.55742 1.92038 9.49118V8.74334L3.52038 9.46206V9.39838C4.48038 8.5635 6.1671 8.03358 7.99974 8.03358C9.83302 8.03358 11.5204 8.5635 12.4804 9.39838V9.46206L15.6388 8.00926Z" fill="#4C617C"/>
</svg>
