<svg width="27" height="27" viewBox="0 0 27 27" fill="none" xmlns="http://www.w3.org/2000/svg">
<path d="M19.1006 1H7.89891C4.09485 1 1 4.095 1 7.89906V19.1008C1 22.905 4.09485 25.9999 7.89891 25.9999H19.1006C22.905 25.9999 25.9999 22.9049 25.9999 19.1008V7.89906C26 4.095 22.905 1 19.1006 1ZM23.7819 19.1008C23.7819 21.6819 21.6819 23.7817 19.1008 23.7817H7.89891C5.31792 23.7819 3.21811 21.6819 3.21811 19.1008V7.89906C3.21811 5.31806 5.31792 3.21811 7.89891 3.21811H19.1006C21.6818 3.21811 23.7817 5.31806 23.7817 7.89906V19.1008H23.7819Z" fill="#88ACDA"/>
<path d="M13.4999 7.05835C9.9478 7.05835 7.05804 9.9481 7.05804 13.5002C7.05804 17.0521 9.9478 19.9417 13.4999 19.9417C17.052 19.9417 19.9417 17.0521 19.9417 13.5002C19.9417 9.9481 17.052 7.05835 13.4999 7.05835ZM13.4999 17.7235C11.171 17.7235 9.27615 15.8289 9.27615 13.5C9.27615 11.171 11.1709 9.27631 13.4999 9.27631C15.8289 9.27631 17.7236 11.171 17.7236 13.5C17.7236 15.8289 15.8287 17.7235 13.4999 17.7235Z" fill="#88ACDA"/>
<path d="M20.2119 5.17755C19.7846 5.17755 19.3647 5.35056 19.0629 5.65371C18.7596 5.95537 18.5853 6.37533 18.5853 6.80416C18.5853 7.23167 18.7598 7.65148 19.0629 7.95462C19.3646 8.25629 19.7846 8.43078 20.2119 8.43078C20.6407 8.43078 21.0592 8.25629 21.3624 7.95462C21.6655 7.65148 21.8385 7.23152 21.8385 6.80416C21.8385 6.37533 21.6655 5.95537 21.3624 5.65371C21.0607 5.35056 20.6407 5.17755 20.2119 5.17755Z" fill="#88ACDA"/>
</svg>
