<svg width="20" height="20" viewBox="0 0 20 20" fill="none" xmlns="http://www.w3.org/2000/svg">
<path d="M13.7037 0C10.2222 0 7.40741 2.81481 7.40741 6.29628C7.40741 7.03702 7.55556 7.77776 7.77776 8.5185L0 16.2963V20H3.7037V17.7778H5.92593V15.5556H8.14815L11.4815 12.2222C12.1481 12.4444 12.8889 12.5926 13.7037 12.5926C17.1852 12.5926 20 9.77778 20 6.29632C20 2.81485 17.1852 0 13.7037 0ZM15.5556 6.66667C14.2963 6.66667 13.3333 5.70372 13.3333 4.44444C13.3333 3.18517 14.2963 2.22222 15.5556 2.22222C16.8148 2.22222 17.7778 3.18517 17.7778 4.44444C17.7778 5.70372 16.8148 6.66667 15.5556 6.66667Z" fill="#598CF5"/>
</svg>
