<svg width="16" height="16" viewBox="0 0 16 16" fill="none" xmlns="http://www.w3.org/2000/svg">
<path d="M12.1046 11.2547L11.3133 12.0374C10.73 12.6094 9.97331 13.3454 9.04265 14.2454C8.76293 14.5159 8.38907 14.6671 7.99998 14.6671C7.61089 14.6671 7.23703 14.5159 6.95731 14.2454L4.62998 11.9814C4.33732 11.6941 4.09265 11.4521 3.89531 11.2547C3.08356 10.4429 2.53076 9.40863 2.30682 8.28265C2.08288 7.15667 2.19786 5.98956 2.63721 4.92892C3.07656 3.86828 3.82056 2.96174 4.77512 2.32394C5.72969 1.68613 6.85194 1.3457 7.99998 1.3457C9.14802 1.3457 10.2703 1.68613 11.2248 2.32394C12.1794 2.96174 12.9234 3.86828 13.3628 4.92892C13.8021 5.98956 13.9171 7.15667 13.6931 8.28265C13.4692 9.40863 12.9164 10.4429 12.1046 11.2547ZM9.66665 7.33341C9.66665 6.89138 9.49105 6.46746 9.17849 6.1549C8.86593 5.84234 8.44201 5.66674 7.99998 5.66674C7.55795 5.66674 7.13403 5.84234 6.82147 6.1549C6.50891 6.46746 6.33331 6.89138 6.33331 7.33341C6.33331 7.77544 6.50891 8.19936 6.82147 8.51192C7.13403 8.82448 7.55795 9.00008 7.99998 9.00008C8.44201 9.00008 8.86593 8.82448 9.17849 8.51192C9.49105 8.19936 9.66665 7.77544 9.66665 7.33341Z" fill="#4C617C"/>
</svg>
