<svg width="27" height="27" viewBox="0 0 27 27" fill="none" xmlns="http://www.w3.org/2000/svg">
<path fill-rule="evenodd" clip-rule="evenodd" d="M4.03307 2C2.19938 2 1 3.17385 1 4.7175C1 6.22751 2.16468 7.43699 3.96193 7.43699H3.99773C5.86693 7.43699 7.02941 6.22774 7.02941 4.7175C6.99418 3.17385 5.86693 2 4.03307 2ZM26 16.2944V25.3149H20.6417V16.8985C20.6417 14.7843 19.8667 13.3414 17.9271 13.3414C16.4466 13.3414 15.5655 14.3138 15.1778 15.2544C15.0365 15.5907 15.0001 16.0587 15.0001 16.5295V25.3149H9.63997C9.63997 25.3149 9.71216 11.0603 9.63997 9.58343H14.9996V11.8133C14.9944 11.8212 14.9886 11.8293 14.9827 11.8375L14.9827 11.8375C14.9762 11.8466 14.9697 11.8556 14.9643 11.8641H14.9996V11.8133C15.7116 10.7429 16.9833 9.21385 19.8298 9.21385C23.3563 9.2138 26 11.4623 26 16.2944ZM6.67637 25.3143H1.31829V9.58278H6.67637V25.3143Z" fill="#88ACDA"/>
</svg>
