<svg width="16" height="16" viewBox="0 0 16 16" fill="none" xmlns="http://www.w3.org/2000/svg">
<path d="M1.33203 4.66659C1.33203 4.31296 1.47251 3.97382 1.72256 3.72378C1.9726 3.47373 2.31174 3.33325 2.66536 3.33325H13.332C13.6857 3.33325 14.0248 3.47373 14.2748 3.72378C14.5249 3.97382 14.6654 4.31296 14.6654 4.66659V11.3333C14.6654 11.6869 14.5249 12.026 14.2748 12.2761C14.0248 12.5261 13.6857 12.6666 13.332 12.6666H2.66536C2.31174 12.6666 1.9726 12.5261 1.72256 12.2761C1.47251 12.026 1.33203 11.6869 1.33203 11.3333V4.66659Z" stroke="#4C617C" stroke-width="2" stroke-linecap="round" stroke-linejoin="round"/>
<path d="M8 10C9.10457 10 10 9.10457 10 8C10 6.89543 9.10457 6 8 6C6.89543 6 6 6.89543 6 8C6 9.10457 6.89543 10 8 10Z" stroke="#4C617C" stroke-width="2" stroke-linecap="round" stroke-linejoin="round"/>
<path d="M1.33203 5.99992C2.03928 5.99992 2.71755 5.71897 3.21765 5.21887C3.71775 4.71877 3.9987 4.0405 3.9987 3.33325" stroke="#4C617C" stroke-width="2" stroke-linecap="round" stroke-linejoin="round"/>
<path d="M12 12.6667C12 11.9594 12.281 11.2811 12.781 10.781C13.2811 10.281 13.9594 10 14.6667 10" stroke="#4C617C" stroke-width="2" stroke-linecap="round" stroke-linejoin="round"/>
</svg>
