<svg width="14" height="16" viewBox="0 0 14 16" fill="none" xmlns="http://www.w3.org/2000/svg">
<path d="M2.73255 8.53322H2.19922V7.46655H2.73255C2.874 7.46655 3.00966 7.52274 3.10968 7.62276C3.2097 7.72278 3.26589 7.85844 3.26589 7.99989C3.26589 8.14133 3.2097 8.27699 3.10968 8.37701C3.00966 8.47703 2.874 8.53322 2.73255 8.53322Z" fill="#E16685"/>
<path d="M6.46484 10.6666V7.46655H6.99818C7.13963 7.46655 7.27528 7.52274 7.3753 7.62276C7.47532 7.72278 7.53151 7.85844 7.53151 7.99989V10.1332C7.53151 10.2747 7.47532 10.4103 7.3753 10.5103C7.27528 10.6104 7.13963 10.6666 6.99818 10.6666H6.46484Z" fill="#E16685"/>
<path fill-rule="evenodd" clip-rule="evenodd" d="M0.0664062 1.6C0.0664063 1.17565 0.234977 0.768687 0.535035 0.468629C0.835094 0.168571 1.24206 0 1.66641 0L10.4205 0L13.9331 3.51253V14.4C13.9331 14.8243 13.7645 15.2313 13.4644 15.5314C13.1644 15.8314 12.7574 16 12.3331 16H1.66641C1.24206 16 0.835094 15.8314 0.535035 15.5314C0.234977 15.2313 0.0664063 14.8243 0.0664062 14.4V1.6ZM2.73307 6.4H1.13307V11.7333H2.19974V9.6H2.73307C3.15742 9.6 3.56439 9.43143 3.86444 9.13137C4.1645 8.83131 4.33307 8.42435 4.33307 8C4.33307 7.57565 4.1645 7.16869 3.86444 6.86863C3.56439 6.56857 3.15742 6.4 2.73307 6.4ZM6.99974 6.4H5.39974V11.7333H6.99974C7.42409 11.7333 7.83105 11.5648 8.13111 11.2647C8.43117 10.9646 8.59974 10.5577 8.59974 10.1333V8C8.59974 7.57565 8.43117 7.16869 8.13111 6.86863C7.83105 6.56857 7.42409 6.4 6.99974 6.4ZM9.66641 11.7333V6.4H12.8664V7.46667H10.7331V8.53333H11.7997V9.6H10.7331V11.7333H9.66641Z" fill="#E16685"/>
</svg>
