<svg width="14" height="14" viewBox="0 0 14 14" fill="none" xmlns="http://www.w3.org/2000/svg">
<rect width="14" height="14" rx="7" fill="#B3C0D3"/>
<path d="M6.264 8.136V6.912C6.68533 6.896 7 6.82667 7.208 6.704C7.42133 6.576 7.528 6.36267 7.528 6.064V5.952C7.528 5.74933 7.46667 5.59467 7.344 5.488C7.22667 5.38133 7.072 5.328 6.88 5.328C6.672 5.328 6.49867 5.392 6.36 5.52C6.22667 5.648 6.136 5.81067 6.088 6.008L5.112 5.6C5.16 5.44 5.22933 5.28533 5.32 5.136C5.41067 4.98133 5.528 4.84533 5.672 4.728C5.82133 4.60533 5.99733 4.50667 6.2 4.432C6.408 4.35733 6.648 4.32 6.92 4.32C7.19733 4.32 7.45067 4.36 7.68 4.44C7.90933 4.52 8.10667 4.632 8.272 4.776C8.43733 4.92 8.56267 5.09333 8.648 5.296C8.73867 5.49867 8.784 5.72267 8.784 5.968C8.784 6.192 8.74667 6.39467 8.672 6.576C8.59733 6.75733 8.496 6.91733 8.368 7.056C8.24 7.18933 8.09067 7.29867 7.92 7.384C7.74933 7.46933 7.57067 7.528 7.384 7.56V8.136H6.264ZM6.84 10.096C6.584 10.096 6.4 10.0373 6.288 9.92C6.18133 9.80267 6.128 9.65867 6.128 9.488V9.296C6.128 9.12533 6.18133 8.98133 6.288 8.864C6.4 8.74667 6.584 8.688 6.84 8.688C7.096 8.688 7.27733 8.74667 7.384 8.864C7.496 8.98133 7.552 9.12533 7.552 9.296V9.488C7.552 9.65867 7.496 9.80267 7.384 9.92C7.27733 10.0373 7.096 10.096 6.84 10.096Z" fill="white"/>
</svg>
