<svg width="24" height="24" viewBox="0 0 24 24" fill="none" xmlns="http://www.w3.org/2000/svg">
<rect width="24" height="24" rx="4" fill="#EDF1F5"/>
<path d="M11.998 11.3334C11.8211 11.3334 11.6516 11.4036 11.5266 11.5286C11.4015 11.6537 11.3313 11.8232 11.3313 12V14C11.3313 14.1769 11.4015 14.3464 11.5266 14.4714C11.6516 14.5965 11.8211 14.6667 11.998 14.6667C12.1748 14.6667 12.3443 14.5965 12.4694 14.4714C12.5944 14.3464 12.6646 14.1769 12.6646 14V12C12.6646 11.8232 12.5944 11.6537 12.4694 11.5286C12.3443 11.4036 12.1748 11.3334 11.998 11.3334ZM11.998 9.33337C11.8661 9.33337 11.7372 9.37247 11.6276 9.44573C11.5179 9.51898 11.4325 9.6231 11.382 9.74492C11.3316 9.86674 11.3184 10.0008 11.3441 10.1301C11.3698 10.2594 11.4333 10.3782 11.5266 10.4714C11.6198 10.5647 11.7386 10.6282 11.8679 10.6539C11.9972 10.6796 12.1313 10.6664 12.2531 10.616C12.3749 10.5655 12.479 10.4801 12.5523 10.3704C12.6255 10.2608 12.6646 10.1319 12.6646 10C12.6646 9.82323 12.5944 9.65366 12.4694 9.52864C12.3443 9.40361 12.1748 9.33337 11.998 9.33337ZM11.998 5.33337C11.1225 5.33337 10.2556 5.50581 9.44673 5.84084C8.6379 6.17588 7.90297 6.66694 7.28391 7.286C6.03367 8.53624 5.33129 10.2319 5.33129 12C5.32546 13.5395 5.85849 15.0324 6.83796 16.22L5.50462 17.5534C5.41212 17.6471 5.34945 17.7662 5.32454 17.8955C5.29962 18.0248 5.31357 18.1586 5.36462 18.28C5.42 18.4 5.50976 18.5008 5.62252 18.5696C5.73528 18.6385 5.86596 18.6723 5.99796 18.6667H11.998C13.7661 18.6667 15.4618 17.9643 16.712 16.7141C17.9622 15.4638 18.6646 13.7682 18.6646 12C18.6646 10.2319 17.9622 8.53624 16.712 7.286C15.4618 6.03575 13.7661 5.33337 11.998 5.33337ZM11.998 17.3334H7.60462L8.22462 16.7134C8.28762 16.6516 8.33773 16.578 8.37206 16.4968C8.40639 16.4155 8.42426 16.3282 8.42462 16.24C8.42212 16.0642 8.35023 15.8965 8.22462 15.7734C7.35168 14.9014 6.80807 13.7537 6.68642 12.5259C6.56476 11.2981 6.87259 10.066 7.55744 9.03972C8.2423 8.0134 9.26182 7.25628 10.4423 6.89736C11.6228 6.53843 12.8912 6.59991 14.0314 7.07132C15.1717 7.54272 16.1132 8.39489 16.6956 9.48264C17.278 10.5704 17.4652 11.8264 17.2254 13.0367C16.9855 14.247 16.3335 15.3367 15.3803 16.1202C14.4271 16.9037 13.2318 17.3324 11.998 17.3334Z" fill="#4C617C"/>
</svg>
