<svg width="10" height="12" viewBox="0 0 10 12" fill="none" xmlns="http://www.w3.org/2000/svg">
<path d="M2.60725 2.13393L4.55104 0.190322C4.67835 0.0631342 4.84465 0 5.01113 0H5.01591H5.02069C5.1871 0 5.35377 0.0631342 5.48108 0.190322L7.42456 2.13393C7.67894 2.38812 7.67894 2.80033 7.42456 3.0544C7.29756 3.18159 7.13077 3.24515 6.96436 3.24515C6.79757 3.24515 6.63116 3.18159 6.50415 3.0544L5.64504 2.19547V4.17279V5.4446V5.68292C5.64504 6.04254 5.35346 6.33394 4.9939 6.33394C4.63428 6.33394 4.34307 6.04254 4.34307 5.68292V5.4446V4.17279V2.2396L3.52803 3.05452C3.40072 3.18171 3.23424 3.24527 3.06782 3.24527C2.90104 3.24527 2.73462 3.18171 2.60744 3.05452C2.353 2.80033 2.353 2.38794 2.60725 2.13393ZM10 9.9696C10 10.8483 9.13819 11.5366 8.03806 11.5366H1.96175C0.86181 11.5366 0 10.8483 0 9.9696V5.73974C0 4.86095 0.861626 4.17255 1.96175 4.17255H2.78219C2.87548 4.18922 2.97092 4.19896 3.0677 4.19896C3.16387 4.19896 3.25864 4.1891 3.3515 4.17255H3.38901V5.44436H1.96175C1.51644 5.44436 1.27181 5.66631 1.27181 5.73974V9.9696C1.27181 10.043 1.5165 10.2648 1.96175 10.2648H8.03825C8.48356 10.2648 8.72819 10.0428 8.72819 9.9696V5.73974C8.72819 5.66631 8.4835 5.44436 8.03825 5.44436H6.59873V4.17255H6.68681C6.77759 4.1883 6.86996 4.19896 6.96423 4.19896C7.06102 4.19896 7.15627 4.18928 7.24975 4.17255H8.03825C9.13837 4.17255 10 4.86107 10 5.73974V9.9696Z" fill="#598CF5"/>
</svg>
