<svg width="38" height="29" viewBox="0 0 38 29" fill="none" xmlns="http://www.w3.org/2000/svg">
<path d="M19.8305 0.761082L21.6448 4.46203C21.8262 4.87988 22.2495 5.17834 22.6729 5.23803L26.7852 5.83496C27.9343 6.01404 28.4181 7.38697 27.5714 8.22267L24.6081 11.0879C24.3057 11.3864 24.1243 11.8639 24.1848 12.3415L24.9105 16.4006C25.0919 17.5347 23.8824 18.3704 22.8543 17.8332L19.1652 15.923C18.7419 15.6843 18.2581 15.6843 17.8348 15.923L14.1457 17.8332C13.1176 18.3704 11.9081 17.475 12.0895 16.4006L12.8152 12.3415C12.8757 11.8639 12.7548 11.4461 12.3919 11.0879L9.42858 8.22267C8.58191 7.44666 9.06572 6.01404 10.2148 5.83496L14.3271 5.23803C14.811 5.17834 15.1738 4.87988 15.3552 4.46203L17.1695 0.761082C17.8348 -0.253694 19.3467 -0.253694 19.8305 0.761082Z" fill="#F7B563"/>
<path d="M3.64977 28.06C4.51977 28.06 5.00977 27.595 5.00977 26.925C5.00977 26.325 4.66477 26.005 3.94977 25.89L3.60477 25.835C3.31477 25.79 3.18977 25.7 3.18977 25.46C3.18977 25.25 3.35477 25.12 3.69477 25.12C4.05477 25.12 4.27977 25.255 4.44477 25.45L4.94977 24.94C4.66477 24.625 4.26477 24.45 3.73977 24.45C2.91977 24.45 2.42977 24.885 2.42977 25.51C2.42977 26.095 2.76477 26.455 3.49977 26.55L3.84477 26.595C4.16977 26.64 4.24977 26.78 4.24977 26.97C4.24977 27.225 4.06977 27.39 3.69977 27.39C3.35977 27.39 3.05977 27.255 2.82477 26.99L2.32477 27.495C2.62477 27.825 3.03977 28.06 3.64977 28.06ZM7.72988 28H8.48988V24.51H7.72988V25.895H6.39988V24.51H5.63988V28H6.39988V26.565H7.72988V28ZM10.658 28.06C11.583 28.06 12.193 27.44 12.193 26.255C12.193 25.07 11.583 24.45 10.658 24.45C9.73305 24.45 9.12305 25.07 9.12305 26.255C9.12305 27.44 9.73305 28.06 10.658 28.06ZM10.658 27.385C10.203 27.385 9.92805 27.07 9.92805 26.515V25.995C9.92805 25.44 10.203 25.125 10.658 25.125C11.113 25.125 11.388 25.44 11.388 25.995V26.515C11.388 27.07 11.113 27.385 10.658 27.385ZM13.5874 26.72H14.1324L14.7424 28H15.5874L14.9024 26.63C15.3274 26.47 15.5374 26.095 15.5374 25.625C15.5374 24.96 15.1274 24.51 14.4824 24.51H12.8274V28H13.5874V26.72ZM13.5874 26.08V25.17H14.3874C14.6124 25.17 14.7524 25.29 14.7524 25.515V25.735C14.7524 25.96 14.6124 26.08 14.3874 26.08H13.5874ZM18.4745 25.185V24.51H15.8245V25.185H16.7695V28H17.5295V25.185H18.4745ZM21.0844 28V27.325H19.7544V24.51H18.9944V28H21.0844ZM23.1707 28V27.395H22.7207V25.115H23.1707V24.51H21.5107V25.115H21.9607V27.395H21.5107V28H23.1707ZM24.9339 28.06C25.8039 28.06 26.2939 27.595 26.2939 26.925C26.2939 26.325 25.9489 26.005 25.2339 25.89L24.8889 25.835C24.5989 25.79 24.4739 25.7 24.4739 25.46C24.4739 25.25 24.6389 25.12 24.9789 25.12C25.3389 25.12 25.5639 25.255 25.7289 25.45L26.2339 24.94C25.9489 24.625 25.5489 24.45 25.0239 24.45C24.2039 24.45 23.7139 24.885 23.7139 25.51C23.7139 26.095 24.0489 26.455 24.7839 26.55L25.1289 26.595C25.4539 26.64 25.5339 26.78 25.5339 26.97C25.5339 27.225 25.3539 27.39 24.9839 27.39C24.6439 27.39 24.3439 27.255 24.1089 26.99L23.6089 27.495C23.9089 27.825 24.3239 28.06 24.9339 28.06ZM29.2069 25.185V24.51H26.5569V25.185H27.5019V28H28.2619V25.185H29.2069ZM32.1018 28V27.325H30.4868V26.565H31.8718V25.895H30.4868V25.185H32.1018V24.51H29.7268V28H32.1018ZM32.7639 28H34.0789C35.0039 28 35.6139 27.415 35.6139 26.255C35.6139 25.095 35.0039 24.51 34.0789 24.51H32.7639V28ZM33.5239 27.325V25.185H34.0789C34.5289 25.185 34.8089 25.43 34.8089 25.985V26.525C34.8089 27.08 34.5289 27.325 34.0789 27.325H33.5239Z" fill="#4C617C"/>
</svg>
