<svg width="38" height="29" viewBox="0 0 38 29" fill="none" xmlns="http://www.w3.org/2000/svg">
<path d="M19.8305 0.761082L21.6448 4.46203C21.8262 4.87988 22.2495 5.17834 22.6729 5.23803L26.7852 5.83496C27.9343 6.01404 28.4181 7.38697 27.5714 8.22267L24.6081 11.0879C24.3057 11.3864 24.1243 11.8639 24.1848 12.3415L24.9105 16.4006C25.0919 17.5347 23.8824 18.3704 22.8543 17.8332L19.1652 15.923C18.7419 15.6843 18.2581 15.6843 17.8348 15.923L14.1457 17.8332C13.1176 18.3704 11.9081 17.475 12.0895 16.4006L12.8152 12.3415C12.8757 11.8639 12.7548 11.4461 12.3919 11.0879L9.42858 8.22267C8.58191 7.44666 9.06572 6.01404 10.2148 5.83496L14.3271 5.23803C14.811 5.17834 15.1738 4.87988 15.3552 4.46203L17.1695 0.761082C17.8348 -0.253694 19.3467 -0.253694 19.8305 0.761082Z" fill="#B3C0D3"/>
<path d="M6.42918 28V26.74H7.31918C7.96918 26.74 8.37918 26.285 8.37918 25.625C8.37918 24.965 7.96918 24.51 7.31918 24.51H5.66918V28H6.42918ZM6.42918 25.17H7.22918C7.45418 25.17 7.59418 25.29 7.59418 25.515V25.735C7.59418 25.96 7.45418 26.08 7.22918 26.08H6.42918V25.17ZM10.3504 28.06C11.2754 28.06 11.8854 27.44 11.8854 26.255C11.8854 25.07 11.2754 24.45 10.3504 24.45C9.42543 24.45 8.81543 25.07 8.81543 26.255C8.81543 27.44 9.42543 28.06 10.3504 28.06ZM10.3504 27.385C9.89543 27.385 9.62043 27.07 9.62043 26.515V25.995C9.62043 25.44 9.89543 25.125 10.3504 25.125C10.8054 25.125 11.0804 25.44 11.0804 25.995V26.515C11.0804 27.07 10.8054 27.385 10.3504 27.385ZM14.7928 25.185V24.51H12.1428V25.185H13.0878V28H13.8478V25.185H14.7928ZM17.6877 28V27.325H16.0727V26.565H17.4577V25.895H16.0727V25.185H17.6877V24.51H15.3127V28H17.6877ZM20.3698 28H21.1998V24.51H20.4848V26.86H20.4698L20.1348 26.16L19.1798 24.51H18.3498V28H19.0648V25.65H19.0798L19.4148 26.35L20.3698 28ZM24.368 25.185V24.51H21.718V25.185H22.663V28H23.423V25.185H24.368ZM26.3934 28V27.395H25.9434V25.115H26.3934V24.51H24.7334V25.115H25.1834V27.395H24.7334V28H26.3934ZM29.9666 28L28.8316 24.505H27.8916L26.7416 28H27.5116L27.7616 27.17H28.9266L29.1766 28H29.9666ZM28.7416 26.525H27.9416L28.3266 25.2H28.3516L28.7416 26.525ZM32.5395 28V27.325H31.2095V24.51H30.4495V28H32.5395Z" fill="#B3C3D3"/>
</svg>
