<svg width="27" height="26" viewBox="0 0 27 26" fill="none" xmlns="http://www.w3.org/2000/svg">
<path d="M15.1057 1.06249L17.6361 6.22433C17.8892 6.80712 18.4796 7.2234 19.07 7.30665L24.8057 8.13921C26.4083 8.38898 27.0831 10.3039 25.9022 11.4694L21.7692 15.4657C21.3474 15.882 21.0944 16.548 21.1787 17.2141L22.1909 22.8754C22.444 24.4573 20.757 25.6229 19.3231 24.8736L14.1778 22.2094C13.5874 21.8764 12.9126 21.8764 12.3222 22.2094L7.17692 24.8736C5.743 25.6229 4.05603 24.374 4.30908 22.8754L5.32126 17.2141C5.40561 16.548 5.23691 15.9652 4.73082 15.4657L0.597754 11.4694C-0.583122 10.3871 0.0916646 8.38898 1.69428 8.13921L7.42997 7.30665C8.10475 7.2234 8.61084 6.80712 8.86389 6.22433L11.3943 1.06249C12.3222 -0.35286 14.4309 -0.35286 15.1057 1.06249Z" fill="#F7B563"/>
</svg>
