<svg width="29" height="27" viewBox="0 0 29 27" fill="none" xmlns="http://www.w3.org/2000/svg">
<path d="M16.5297 1.14162L19.2989 6.69304C19.5758 7.31982 20.222 7.76751 20.8681 7.85705L27.1449 8.75244C28.8987 9.02106 29.6372 11.0805 28.3449 12.334L23.8219 16.6319C23.3604 17.0796 23.0835 17.7959 23.1758 18.5122L24.2834 24.6008C24.5603 26.3021 22.7142 27.5556 21.145 26.7498L15.5144 23.8845C14.8682 23.5264 14.1298 23.5264 13.4837 23.8845L7.85301 26.7498C6.28382 27.5556 4.4377 26.2126 4.71462 24.6008L5.82229 18.5122C5.91459 17.7959 5.72998 17.1691 5.17615 16.6319L0.65317 12.334C-0.63911 11.17 0.0993357 9.02106 1.85314 8.75244L8.12993 7.85705C8.86838 7.76751 9.42221 7.31982 9.69913 6.69304L12.4683 1.14162C13.4837 -0.380541 15.7913 -0.380541 16.5297 1.14162Z" fill="#B3C0D3"/>
</svg>
