<svg width="29" height="29" viewBox="0 0 29 29" fill="none" xmlns="http://www.w3.org/2000/svg">
<circle cx="14.5" cy="14.5" r="14.5" fill="black" fill-opacity="0.15"/>
<circle cx="14.5" cy="14.5" r="8.5" fill="#719FFF"/>
<g clip-path="url(#clip0)">
<path d="M13.0701 18.1699C12.8631 18.1699 12.6559 18.091 12.4981 17.933L9.63738 15.0723C9.32139 14.7563 9.32139 14.2441 9.63738 13.9281C9.95337 13.6121 10.4656 13.6121 10.7816 13.9281L13.0701 16.2166L18.2192 11.0675C18.5352 10.7516 19.0475 10.7515 19.3633 11.0675C19.6794 11.3835 19.6794 11.8959 19.3633 12.2117L13.6422 17.933C13.4842 18.0909 13.2771 18.1699 13.0701 18.1699Z" fill="white"/>
</g>
<defs>
<clipPath id="clip0">
<rect width="10.2" height="10.2" fill="white" transform="matrix(1 0 0 -1 9.40039 19.6001)"/>
</clipPath>
</defs>
</svg>
