<svg width="29" height="29" viewBox="0 0 29 29" fill="none" xmlns="http://www.w3.org/2000/svg">
<circle cx="14.5" cy="14.5" r="14.5" fill="black" fill-opacity="0.15"/>
<circle cx="14.5" cy="14.5" r="8.5" fill="#FF2E63"/>
<path fill-rule="evenodd" clip-rule="evenodd" d="M18.4623 18.4623C18.8994 18.0252 18.8994 17.3166 18.4623 16.8795L16.0882 14.5054L18.4623 12.1313C18.8994 11.6942 18.8994 10.9856 18.4623 10.5485C18.0252 10.1114 17.3166 10.1114 16.8795 10.5485L14.5054 12.9226L12.1313 10.5485C11.6942 10.1114 10.9856 10.1114 10.5485 10.5485C10.1114 10.9856 10.1114 11.6942 10.5485 12.1313L12.9226 14.5054L10.5485 16.8795C10.1114 17.3166 10.1114 18.0252 10.5485 18.4623C10.9856 18.8994 11.6942 18.8994 12.1313 18.4623L14.5054 16.0882L16.8795 18.4623C17.3166 18.8994 18.0252 18.8994 18.4623 18.4623Z" fill="white"/>
</svg>
