<svg width="11" height="19" viewBox="0 0 11 19" fill="none" xmlns="http://www.w3.org/2000/svg">
<path fill-rule="evenodd" clip-rule="evenodd" d="M9.50867 5.70495C9.85877 5.35485 9.85877 4.78723 9.50867 4.43713C9.15857 4.08704 8.59094 4.08704 8.24084 4.43713L5.0714 7.60655L1.90206 4.43718C1.55197 4.08708 0.984356 4.08708 0.634263 4.43718C0.28417 4.78728 0.28417 5.3549 0.634263 5.70499L3.80359 8.87435L3.80345 8.87448L4.00011 9.07114L3.80345 9.26781L3.8036 9.26796L0.634155 12.4374C0.284056 12.7875 0.284058 13.3551 0.634159 13.7052C0.98426 14.0553 1.55188 14.0553 1.90198 13.7052L5.07142 10.5358L8.24076 13.7051C8.59086 14.0552 9.15847 14.0552 9.50856 13.7051C9.85865 13.355 9.85865 12.7874 9.50856 12.4373L6.33922 9.26798L6.33936 9.26784L6.1427 9.07119L6.33936 8.87452L6.33921 8.87437L9.50867 5.70495Z" fill="black" fill-opacity="0.25"/>
</svg>
