<svg width="93" height="93" viewBox="0 0 93 93" fill="none" xmlns="http://www.w3.org/2000/svg">
<path d="M32.6615 72.9121L18.7864 80.4802C17.9722 80.9241 17.2404 81.4698 16.5596 82.0647C24.6491 88.8853 35.0918 93.0001 46.5015 93.0001C57.8268 93.0001 68.2029 88.9467 76.2696 82.2191C75.5256 81.5909 74.7184 81.0259 73.8234 80.5802L58.9657 73.1525C57.046 72.1926 55.8334 70.2309 55.8334 68.0848V62.2557C56.251 61.7801 56.7283 61.1695 57.239 60.4483C59.264 57.5881 60.7959 54.4419 61.8576 51.1413C63.7633 50.5535 65.1671 48.7935 65.1671 46.7019V40.4796C65.1671 39.111 64.5582 37.8879 63.6124 37.0316V28.0369C63.6124 28.0369 65.4601 14.0396 46.5032 14.0396C27.5463 14.0396 29.3941 28.0369 29.3941 28.0369V37.0316C28.4465 37.8879 27.8393 39.111 27.8393 40.4796V46.7019C27.8393 48.3408 28.7009 49.7831 29.9907 50.6166C31.5454 57.3846 35.6165 62.2557 35.6165 62.2557V67.941C35.6148 70.0115 34.4812 71.9206 32.6615 72.9121Z" fill="#62788D"/>
<path d="M47.2966 0.0069244C21.6189 -0.431755 0.445625 20.0282 0.00692925 45.705C-0.24225 60.2639 6.24694 73.3488 16.5791 82.0505C17.2547 81.4609 17.9794 80.9204 18.7849 80.4818L32.66 72.9137C34.4797 71.9205 35.6133 70.0131 35.6133 67.939V62.2538C35.6133 62.2538 31.5404 57.3827 29.9874 50.6147C28.6994 49.7812 27.8361 48.3406 27.8361 46.6999V40.4777C27.8361 39.109 28.445 37.886 29.3908 37.0297V28.035C29.3908 28.035 27.543 14.0376 46.4999 14.0376C65.4569 14.0376 63.6091 28.035 63.6091 28.035V37.0297C64.5567 37.886 65.1638 39.109 65.1638 40.4777V46.6999C65.1638 48.7916 63.76 50.5516 61.8543 51.1394C60.7927 54.44 59.2607 57.5862 57.2357 60.4464C56.7251 61.1676 56.2478 61.7782 55.8301 62.2538V68.0829C55.8301 70.2289 57.0427 72.1925 58.9624 73.1506L73.8202 80.5783C74.7116 81.024 75.5171 81.5872 76.2593 82.2137C86.2792 73.8577 92.7526 61.3641 92.993 47.2948C93.4352 21.618 72.9761 0.445604 47.2966 0.0069244Z" fill="#DCEBFE"/>
</svg>
