<svg width="22" height="22" viewBox="0 0 22 22" fill="none" xmlns="http://www.w3.org/2000/svg">
<path d="M20.9464 9.97275C20.7681 9.74411 20.4383 9.70346 20.2096 9.88165C19.981 10.06 19.9402 10.3898 20.1185 10.6184C20.2937 10.8432 20.2937 11.157 20.1185 11.3817C18.8344 13.028 17.173 14.2652 15.3026 15.0131C16.2856 13.9605 16.8876 12.549 16.8876 11C16.8876 9.45716 16.2907 8.05075 15.316 7.00038C16.3968 7.43497 17.4128 8.03223 18.3223 8.778C18.4352 8.87051 18.5477 8.96646 18.657 9.06323C18.8741 9.25543 19.2058 9.23523 19.398 9.01819C19.5902 8.80116 19.57 8.46936 19.353 8.2772C19.2339 8.17162 19.111 8.067 18.988 7.96615C16.7441 6.12644 13.9075 5.11328 11.0007 5.11328C7.08866 5.11328 3.4636 6.8845 1.05499 9.97279C0.583233 10.5777 0.583233 11.4226 1.05499 12.0275C3.4636 15.1158 7.08866 16.887 11.0007 16.887C14.9126 16.887 18.5377 15.1158 20.9464 12.0275C21.4181 11.4225 21.4181 10.5776 20.9464 9.97275ZM1.88287 11.3817C1.70764 11.157 1.70764 10.8432 1.88287 10.6184C3.16664 8.97239 4.82773 7.73545 6.69781 6.98741C5.71576 8.0395 5.11373 9.45042 5.11373 11C5.11373 12.5491 5.71572 13.9606 6.69777 15.0127C4.82773 14.2647 3.1666 13.0277 1.88287 11.3817ZM11.0071 15.8369C11.005 15.8369 11.0029 15.8369 11.0007 15.8369C10.9986 15.8369 10.9965 15.8369 10.9943 15.8369C8.32998 15.8335 6.16363 13.6652 6.16363 11C6.16363 8.33491 8.32994 6.16662 10.9943 6.16318C10.9965 6.16318 10.9986 6.16314 11.0007 6.16314C11.0023 6.16314 11.004 6.16318 11.0056 6.16318C13.6706 6.1658 15.8377 8.33439 15.8377 11C15.8377 13.6652 13.6714 15.8335 11.0071 15.8369Z" fill="#4C617C"/>
<path d="M11 8.77246C9.77162 8.77246 8.77246 9.77161 8.77246 11C8.77246 12.2283 9.77162 13.2275 11 13.2275C12.2283 13.2275 13.2275 12.2283 13.2275 11C13.2275 9.77161 12.2283 8.77246 11 8.77246ZM11 12.1776C10.3508 12.1776 9.82236 11.6491 9.82236 11C9.82236 10.3508 10.3508 9.82236 11 9.82236C11.6491 9.82236 12.1776 10.3508 12.1776 11C12.1776 11.6491 11.6491 12.1776 11 12.1776Z" fill="#4C617C"/>
<path d="M10.9996 0C10.7096 0 10.4746 0.234996 10.4746 0.524949V2.49348C10.4746 2.78343 10.7096 3.01843 10.9996 3.01843C11.2895 3.01843 11.5245 2.78343 11.5245 2.49348V0.524949C11.5245 0.234996 11.2895 0 10.9996 0Z" fill="#4C617C"/>
<path d="M10.9996 18.9814C10.7096 18.9814 10.4746 19.2164 10.4746 19.5064V21.4749C10.4746 21.7649 10.7096 21.9999 10.9996 21.9999C11.2895 21.9999 11.5245 21.7649 11.5245 21.4749V19.5064C11.5245 19.2164 11.2894 18.9814 10.9996 18.9814Z" fill="#4C617C"/>
<path d="M18.778 3.22208C18.573 3.01712 18.2407 3.01712 18.0356 3.22208L17.0561 4.20155C16.8511 4.40656 16.8511 4.73892 17.0561 4.94401C17.1586 5.04649 17.2929 5.09775 17.4273 5.09775C17.5616 5.09775 17.6959 5.04649 17.7985 4.94401L18.7781 3.96454C18.983 3.75953 18.983 3.42717 18.778 3.22208Z" fill="#4C617C"/>
<path d="M4.94404 17.056C4.73908 16.8511 4.40672 16.8511 4.20167 17.056L3.22211 18.0355C3.01711 18.2405 3.01711 18.5729 3.22211 18.778C3.32464 18.8805 3.459 18.9317 3.59332 18.9317C3.72764 18.9317 3.86196 18.8805 3.96453 18.778L4.94409 17.7985C5.14905 17.5935 5.14905 17.2611 4.94404 17.056Z" fill="#4C617C"/>
<path d="M4.94305 4.2016L3.96349 3.22208C3.75849 3.01712 3.42612 3.01712 3.22112 3.22208C3.01612 3.42717 3.01616 3.75949 3.22112 3.96454L4.20068 4.94401C4.30316 5.04649 4.43756 5.09775 4.57188 5.09775C4.70621 5.09775 4.84061 5.04649 4.94309 4.94401C5.14805 4.73892 5.14801 4.4066 4.94305 4.2016Z" fill="#4C617C"/>
<path d="M18.778 18.0355L17.7985 17.0561C17.5935 16.8511 17.2612 16.8511 17.0561 17.0561C16.8511 17.2612 16.8511 17.5935 17.0561 17.7985L18.0357 18.778C18.1382 18.8805 18.2725 18.9317 18.4069 18.9317C18.5412 18.9317 18.6755 18.8805 18.7781 18.778C18.9831 18.5729 18.9831 18.2405 18.778 18.0355Z" fill="#4C617C"/>
</svg>
