<svg width="22" height="22" viewBox="0 0 22 22" fill="none" xmlns="http://www.w3.org/2000/svg">
<path d="M10.9996 18.9814C10.7096 18.9814 10.4746 19.2164 10.4746 19.5064V21.4749C10.4746 21.7649 10.7096 21.9999 10.9996 21.9999C11.2895 21.9999 11.5245 21.7649 11.5245 21.4749V19.5064C11.5245 19.2164 11.2894 18.9814 10.9996 18.9814Z" fill="#4C617C"/>
<path d="M4.94404 17.056C4.73908 16.8511 4.40672 16.8511 4.20167 17.056L3.22211 18.0355C3.01711 18.2405 3.01711 18.5729 3.22211 18.778C3.32464 18.8805 3.459 18.9317 3.59332 18.9317C3.72764 18.9317 3.86196 18.8805 3.96453 18.778L4.94409 17.7985C5.14905 17.5935 5.14905 17.2611 4.94404 17.056Z" fill="#4C617C"/>
<path d="M18.778 18.0355L17.7985 17.0561C17.5935 16.8511 17.2612 16.8511 17.0561 17.0561C16.8511 17.2612 16.8511 17.5935 17.0561 17.7985L18.0357 18.778C18.1382 18.8805 18.2725 18.9317 18.4069 18.9317C18.5412 18.9317 18.6755 18.8805 18.7781 18.778C18.9831 18.5729 18.9831 18.2405 18.778 18.0355Z" fill="#4C617C"/>
<path d="M1 11C1.66667 12.8333 4.6 16.5 11 16.5C17.4 16.5 20.3333 12.8333 21 11" stroke="#4C617C" stroke-linejoin="round"/>
</svg>
