<svg width="27" height="27" viewBox="0 0 27 27" fill="none" xmlns="http://www.w3.org/2000/svg">
<path fill-rule="evenodd" clip-rule="evenodd" d="M25.2796 4.5735C26.0595 5.47943 26.3348 7.52977 26.3348 7.52977C26.3348 7.52977 26.6101 9.96157 26.6101 12.3933V14.6344C26.6101 17.0185 26.3348 19.4503 26.3348 19.4503C26.3348 19.4503 26.0595 21.5006 25.2796 22.4065C24.3197 23.4948 23.2353 23.5913 22.6973 23.6391C22.6696 23.6416 22.6433 23.6439 22.6186 23.6463C18.9023 23.98 13.305 23.98 13.305 23.98C13.305 23.98 6.37722 23.9323 4.26681 23.694C4.15466 23.6671 4.01657 23.647 3.85954 23.624C3.18139 23.5251 2.15008 23.3745 1.3305 22.4066C0.5506 21.5007 0.2753 19.4503 0.2753 19.4503C0.2753 19.4503 0 17.0662 0 14.6344V12.3934C0 9.96157 0.2753 7.52977 0.2753 7.52977C0.2753 7.52977 0.504656 5.47949 1.3305 4.5735C2.2904 3.48523 3.37477 3.38876 3.91278 3.3409C3.94051 3.33843 3.96678 3.33609 3.99151 3.33376C7.70772 3.04769 13.305 3 13.305 3C13.305 3 18.9023 3.04769 22.6186 3.33376C22.6569 3.33738 22.6989 3.34072 22.7443 3.34434C23.2966 3.38832 24.3468 3.47196 25.2796 4.5735ZM9.85565 18.9853V8.99486L18.7257 14.1052L9.85565 18.9853Z" fill="#88ACDA"/>
</svg>
