<svg width="156" height="156" viewBox="0 0 156 156" fill="none" xmlns="http://www.w3.org/2000/svg">
<circle cx="78" cy="78.001" r="78" fill="#CFDFFF"/>
<mask id="mask0" mask-type="alpha" maskUnits="userSpaceOnUse" x="0" y="0" width="156" height="157">
<circle cx="78" cy="78.001" r="78" fill="#CFDFFF"/>
</mask>
<g mask="url(#mask0)">
<path fill-rule="evenodd" clip-rule="evenodd" d="M78 158.001H6C7.48965 153.483 13.051 143.743 23.3793 140.932C26.7206 140.023 30.2615 139.322 33.7867 138.624C43.8825 136.625 53.85 134.652 58.6345 127.88C61.1172 124.365 63.1034 115.831 60.6207 109.305C60.0388 107.775 59.157 106.025 58.1478 104.022C54.8505 97.4786 50.1931 88.2357 50.1931 75.167C50.1931 58.0981 52.6759 34.001 78 34.001C103.5 34.001 106 58.001 106 75.001C106 88.017 101.31 97.2226 97.9901 103.74C96.9738 105.735 96.0859 107.478 95.5 109.001C93 115.501 95 124.001 97.5 127.501C102.318 134.246 112.354 136.211 122.52 138.202C126.07 138.897 129.635 139.595 133 140.501C143.4 143.301 149 153.001 150.5 157.501H78V158.001Z" fill="#F7F9FB"/>
</g>
</svg>
